<svg width="25" height="24" viewBox="0 0 25 24" fill="none" xmlns="http://www.w3.org/2000/svg">
<path d="M11.4433 0C12.1462 0 12.8492 0 13.5521 0C13.5604 0.00332363 13.5671 0.00830909 13.5754 0.0099709C13.921 0.0947236 14.1088 0.334025 14.1088 0.689654C14.1088 1.11674 14.1105 1.54383 14.1072 1.97258C14.1072 2.02243 14.1205 2.04404 14.1703 2.05733C14.6822 2.19526 15.1674 2.39634 15.6277 2.65891C15.6759 2.6855 15.7025 2.6855 15.7424 2.64561C16.0465 2.33652 16.3539 2.03074 16.6614 1.72497C16.9339 1.45409 17.3328 1.45409 17.6036 1.72497C18.0457 2.16535 18.4877 2.60739 18.9298 3.04943C19.2139 3.33361 19.2123 3.72579 18.9281 4.00996C18.6223 4.31574 18.3182 4.62151 18.0108 4.92563C17.9742 4.96219 17.9726 4.98545 17.9975 5.03032C18.2617 5.49231 18.4645 5.97922 18.6024 6.49272C18.6157 6.54091 18.6356 6.55753 18.6855 6.55753C19.1192 6.55587 19.5529 6.55587 19.9867 6.55587C20.3755 6.55587 20.6564 6.83672 20.6581 7.22392C20.6581 7.54964 20.6597 7.87535 20.6564 8.20107C20.6564 8.25092 20.6713 8.26422 20.7212 8.27253C20.9007 8.29745 21.0835 8.31906 21.2596 8.36226C21.6103 8.44702 21.8612 8.65641 21.9809 9.00206C22.0291 9.13999 22.1088 9.24303 22.2251 9.32778C22.4345 9.47901 22.5891 9.67842 22.7154 9.90277C22.9647 10.3498 22.9796 10.8018 22.7453 11.2588C22.6688 11.4067 22.5874 11.553 22.5126 11.7025C22.4927 11.7407 22.4811 11.7873 22.4794 11.8305C22.4761 12.113 22.4811 12.3938 22.4761 12.6763C22.4744 12.8043 22.4678 12.9323 22.4495 13.0586C22.3381 13.8213 21.9942 14.4528 21.3826 14.9314C21.3676 14.9431 21.346 14.9597 21.3477 14.9746C21.351 15.0561 21.361 15.1358 21.3676 15.2106C21.4491 15.1907 21.5189 15.1608 21.587 15.1608C21.7748 15.1624 21.9676 15.1591 22.1504 15.1923C23.3086 15.405 24.098 16.0781 24.5251 17.1666C24.7511 17.7399 24.8309 18.3498 24.8874 18.9597C24.9356 19.4865 24.9605 20.0149 24.9904 20.5434C25.0004 20.7146 25.007 20.8874 24.9871 21.0569C24.9439 21.4241 24.6348 21.6817 24.2559 21.6817C23.6892 21.6834 23.1242 21.6817 22.5575 21.6817C21.2912 21.6817 20.0232 21.6817 18.7569 21.6817C18.7337 21.6817 18.7104 21.6834 18.6838 21.6851C18.6838 21.7133 18.6838 21.7349 18.6838 21.7565C18.6871 21.9543 18.6971 22.152 18.6938 22.3481C18.6855 22.7852 18.3265 23.1325 17.8911 23.1325C14.2966 23.1325 10.7004 23.1342 7.10593 23.1308C6.7719 23.1308 6.52928 22.9647 6.37972 22.6672C6.30493 22.5193 6.29995 22.3581 6.30327 22.1969C6.3066 22.0274 6.30327 21.8595 6.30327 21.6801C6.28001 21.6801 6.25009 21.6801 6.22018 21.6801C4.89405 21.6801 3.56958 21.6801 2.24345 21.6801C1.74491 21.6801 1.2447 21.6801 0.746156 21.6801C0.455338 21.6801 0.230993 21.5538 0.0897381 21.2995C0.0481927 21.2231 0.0282509 21.135 0 21.0502C0 20.894 0 20.7378 0 20.5816C0.00332363 20.5517 0.00830909 20.5218 0.0099709 20.4919C0.0282509 19.8737 0.0664727 19.2571 0.144578 18.6423C0.206065 18.167 0.279185 17.6917 0.443705 17.238C0.815952 16.206 1.52887 15.5313 2.58911 15.2389C2.9115 15.1508 3.24387 15.1159 3.5862 15.1824C3.58953 15.1508 3.59119 15.1126 3.59783 15.0743C3.61611 14.958 3.57623 14.8766 3.48483 14.7935C2.91649 14.285 2.61071 13.6402 2.55754 12.8824C2.53095 12.5151 2.54757 12.1446 2.54258 11.7773C2.54258 11.749 2.5459 11.7191 2.53593 11.6942C2.42958 11.3818 2.41794 11.0561 2.40465 10.7304C2.39468 10.5043 2.40465 10.2783 2.48442 10.0623C2.63398 9.65682 2.89655 9.3311 3.22725 9.06023C3.53801 8.80597 3.89364 8.62982 4.26921 8.49687C4.32072 8.47859 4.33734 8.45366 4.33568 8.40049C4.33402 8.01162 4.33402 7.62442 4.33402 7.23555C4.33402 6.83007 4.61154 6.55255 5.01703 6.55255C5.44245 6.55255 5.86788 6.55088 6.2933 6.55421C6.35147 6.55421 6.37805 6.54091 6.39467 6.47943C6.53094 5.97257 6.73202 5.49064 6.99293 5.03531C7.02284 4.98379 7.01619 4.95554 6.97465 4.91566C6.66555 4.60988 6.35811 4.30411 6.054 3.99667C5.78479 3.72579 5.78811 3.32862 6.05732 3.05941C6.50269 2.61404 6.9464 2.16867 7.39176 1.72497C7.6643 1.45409 8.06314 1.45409 8.33401 1.72497C8.64311 2.03406 8.95055 2.3415 9.25798 2.6506C9.29454 2.68716 9.31947 2.68882 9.36268 2.66389C9.82466 2.39966 10.3116 2.19526 10.8251 2.05733C10.8783 2.04237 10.8899 2.01745 10.8899 1.96759C10.8882 1.5322 10.8882 1.09514 10.8899 0.659741C10.8899 0.367262 11.0644 0.124636 11.3319 0.0348982C11.3702 0.0216036 11.4067 0.0116327 11.4433 0ZM19.882 7.32861C19.8487 7.32861 19.8222 7.32861 19.7972 7.32861C19.312 7.32861 18.8251 7.32861 18.3398 7.32861C18.1221 7.32861 17.9759 7.20896 17.931 6.99459C17.7898 6.33485 17.5322 5.72164 17.1682 5.1533C17.0453 4.96052 17.0619 4.77939 17.2231 4.61819C17.5687 4.27253 17.9144 3.92687 18.2584 3.58122C18.275 3.5646 18.29 3.54798 18.2983 3.53967C17.9044 3.14582 17.5139 2.75529 17.1151 2.35646C17.1067 2.36809 17.0968 2.38637 17.0802 2.40299C16.7362 2.74865 16.3905 3.0943 16.0448 3.4383C15.8836 3.5995 15.6992 3.61611 15.5081 3.4948C14.9381 3.1292 14.3232 2.87328 13.6601 2.73037C13.4491 2.6855 13.3328 2.53926 13.3311 2.32322C13.3311 1.83465 13.3311 1.34607 13.3311 0.85916C13.3311 0.834232 13.3311 0.807643 13.3311 0.781054C12.7711 0.781054 12.221 0.781054 11.6626 0.781054C11.6626 0.812629 11.6626 0.837556 11.6626 0.864145C11.6626 1.3494 11.6626 1.83631 11.6626 2.32156C11.6626 2.53926 11.5446 2.68384 11.3353 2.73037C10.6705 2.87328 10.0523 3.1292 9.48233 3.49813C9.29454 3.61944 9.11174 3.5995 8.95221 3.43996C8.61154 3.09929 8.27086 2.75862 7.93019 2.41794C7.90859 2.39634 7.89529 2.36809 7.88532 2.35147C7.47818 2.75695 7.08765 3.14748 6.68881 3.54798C6.70377 3.55961 6.72704 3.57291 6.74532 3.59119C7.08599 3.93186 7.42666 4.27253 7.76733 4.6132C7.93352 4.77939 7.9518 4.96052 7.8255 5.15994C7.46488 5.7233 7.21229 6.32986 7.06771 6.98296C7.01619 7.21893 6.87992 7.33194 6.6373 7.33194C6.15537 7.33194 5.67344 7.33194 5.19152 7.33194C5.16659 7.33194 5.14166 7.33194 5.11341 7.33194C5.11341 7.65433 5.11341 7.96675 5.11341 8.27917C5.12172 8.2825 5.12504 8.28416 5.13003 8.28416C5.15163 8.2825 5.17324 8.2825 5.19484 8.27917C5.55047 8.23597 5.90444 8.25591 6.25674 8.32238C6.67386 8.40049 6.99459 8.59824 7.13751 9.01868C7.17905 9.14498 7.25383 9.23804 7.35853 9.31449C7.54964 9.45242 7.6992 9.62857 7.82051 9.82799C8.11133 10.3066 8.1429 10.7935 7.87535 11.292C7.80223 11.4283 7.72911 11.5629 7.65932 11.7009C7.64104 11.7374 7.62774 11.7823 7.62774 11.8238C7.62442 12.1014 7.63273 12.3789 7.62442 12.6564C7.61943 12.8342 7.6078 13.012 7.57622 13.1865C7.4466 13.8978 7.10261 14.4844 6.53094 14.9314C6.51432 14.9431 6.49272 14.9647 6.49438 14.9796C6.49771 15.0577 6.50768 15.1375 6.51432 15.199C6.62567 15.184 6.72537 15.1591 6.82342 15.1574C7.42999 15.1491 7.98337 15.3186 8.48524 15.6576C8.52678 15.6859 8.5567 15.6859 8.60157 15.6626C9.17323 15.3519 9.78478 15.2073 10.4346 15.2372C10.5077 15.2405 10.5808 15.2821 10.6539 15.3087C10.6722 15.3153 10.6888 15.3319 10.7154 15.3485C10.7553 15.1541 10.7869 14.9713 10.742 14.7852C10.737 14.7619 10.7171 14.7403 10.6988 14.7254C9.94099 14.0905 9.53883 13.2729 9.46737 12.2941C9.44078 11.9335 9.45408 11.5696 9.45408 11.2073C9.45408 11.0129 9.44245 10.8218 9.39093 10.6306C9.28623 10.2385 9.28125 9.83297 9.28291 9.42915C9.28457 9.23306 9.3095 9.03862 9.3793 8.85416C9.53385 8.43871 9.79475 8.09471 10.1155 7.79392C10.496 7.43663 10.9514 7.19899 11.435 7.01287C12.2559 6.69546 13.0984 6.58744 13.9709 6.76027C14.4744 6.85998 14.8417 7.11424 14.9996 7.62109C15.0444 7.76401 15.1392 7.86372 15.2555 7.94847C15.4915 8.1213 15.6826 8.33401 15.8338 8.58329C16.1562 9.11507 16.221 9.66181 15.9352 10.2301C15.8321 10.4362 15.7191 10.6356 15.6144 10.84C15.5962 10.8749 15.5845 10.9165 15.5829 10.9564C15.5812 11.3037 15.5829 11.651 15.5812 11.9983C15.5795 12.2542 15.5596 12.5102 15.5064 12.7611C15.3402 13.5471 14.9597 14.2085 14.3365 14.722C14.1603 14.8018 14.1454 14.9447 14.1836 15.1109C14.2036 15.1973 14.2202 15.2854 14.2401 15.3818C14.2866 15.3502 14.3166 15.3203 14.3515 15.307C14.4229 15.2787 14.496 15.2405 14.5708 15.2372C15.2189 15.2073 15.8288 15.3519 16.3988 15.661C16.4453 15.6859 16.4769 15.6842 16.5201 15.656C16.801 15.4649 17.1051 15.3269 17.4358 15.2472C17.7648 15.1674 18.0972 15.1209 18.4445 15.1907C18.4478 15.1259 18.4512 15.0627 18.4545 14.9979C18.4578 14.9331 18.4345 14.8866 18.383 14.8417C17.7964 14.3348 17.4773 13.6867 17.4125 12.919C17.3876 12.6132 17.4009 12.3041 17.3976 11.995C17.3959 11.8438 17.3893 11.6959 17.3494 11.5463C17.2646 11.2239 17.2563 10.8899 17.258 10.5575C17.258 10.388 17.2796 10.2185 17.3427 10.059C17.5072 9.63522 17.7848 9.29288 18.1437 9.02201C18.6439 8.64477 19.2139 8.42874 19.8271 8.31573C19.877 8.30742 19.8903 8.28914 19.8903 8.24095C19.8886 7.96177 19.8886 7.68092 19.8886 7.40173C19.8853 7.37847 19.8836 7.35853 19.882 7.32861ZM16.2476 22.3598C16.2858 22.3598 16.3141 22.3598 16.3423 22.3598C16.8342 22.3598 17.3278 22.3598 17.8197 22.3598C17.921 22.3598 17.9227 22.3598 17.9177 22.2584C17.8861 21.597 17.8662 20.9356 17.8213 20.2758C17.7781 19.646 17.6884 19.0212 17.5388 18.4063C17.3893 17.7881 17.1184 17.238 16.6481 16.796C16.123 16.3024 15.5048 16.0282 14.7819 16.0016C14.727 16 14.6822 16.0116 14.6373 16.0432C13.9892 16.4935 13.3394 16.9439 12.6913 17.3926C12.5251 17.5072 12.3589 17.5056 12.1961 17.3859C11.6477 16.9854 11.0993 16.5866 10.5509 16.1861C10.28 15.9883 10.28 15.9867 9.94764 16.0232C9.93434 16.0249 9.92105 16.0249 9.90942 16.0282C8.86247 16.2094 8.12629 16.7993 7.68258 17.7532C7.4815 18.1853 7.39509 18.6522 7.31864 19.1192C7.14914 20.1645 7.09928 21.2197 7.081 22.2767C7.07934 22.3398 7.10094 22.3581 7.16243 22.3581C7.66762 22.3564 8.17282 22.3564 8.67967 22.3564C8.70294 22.3564 8.72454 22.3531 8.75279 22.3514C8.75279 22.3149 8.75279 22.285 8.75279 22.2551C8.75279 21.3327 8.75279 20.4104 8.75279 19.4881C8.75279 19.2189 8.99708 19.0345 9.24967 19.1092C9.4225 19.1591 9.5272 19.3103 9.5272 19.5114C9.5272 20.4287 9.5272 21.3477 9.5272 22.265C9.5272 22.2949 9.5272 22.3232 9.5272 22.3514C11.5147 22.3514 13.4906 22.3514 15.4732 22.3514C15.4732 22.3165 15.4732 22.2866 15.4732 22.2567C15.4732 21.346 15.4715 20.4337 15.4748 19.523C15.4748 19.4516 15.4881 19.3735 15.5164 19.3087C15.5878 19.1458 15.7723 19.0627 15.9451 19.1009C16.1246 19.1408 16.2476 19.2937 16.2476 19.4815C16.2476 20.4055 16.2476 21.3294 16.2476 22.2551C16.2476 22.2883 16.2476 22.3182 16.2476 22.3598ZM1.97424 20.9023C1.97424 20.8691 1.97424 20.8409 1.97424 20.8109C1.97424 20.1097 1.97424 19.41 1.97424 18.7087C1.97424 18.6589 1.9759 18.6074 1.9892 18.5608C2.03905 18.3714 2.21686 18.2551 2.41628 18.28C2.60407 18.3033 2.74865 18.4661 2.74865 18.6622C2.74865 19.3868 2.75031 20.1113 2.74865 20.8359C2.74865 20.8907 2.76028 20.9106 2.8201 20.909C3.97507 20.9073 5.12837 20.9073 6.28333 20.9073C6.3066 20.9073 6.3282 20.9057 6.34814 20.904C6.37806 20.56 6.40298 20.2243 6.43622 19.8903C6.49438 19.312 6.57913 18.737 6.72205 18.172C6.88657 17.5172 7.16742 16.9223 7.63273 16.4254C7.70751 16.3456 7.7906 16.2725 7.87701 16.1894C7.84378 16.1711 7.8255 16.1612 7.80722 16.1512C7.53966 16.0183 7.25549 15.9451 6.95637 15.9302C6.90485 15.9269 6.86164 15.9335 6.81677 15.9651C6.3066 16.3207 5.79476 16.6747 5.28292 17.0303C5.11009 17.15 4.94557 17.1483 4.77772 17.0253C4.29247 16.6714 3.80722 16.3174 3.32031 15.9651C3.29372 15.9451 3.25384 15.9318 3.2206 15.9335C2.30328 15.9933 1.66182 16.4636 1.2663 17.2763C1.08184 17.6568 1.01537 18.0723 0.952221 18.4877C0.852512 19.1358 0.810967 19.7906 0.791025 20.4453C0.78604 20.5966 0.791025 20.7478 0.791025 20.904C1.17823 20.9023 1.57208 20.9023 1.97424 20.9023ZM17.1167 16.1878C17.1483 16.211 17.1699 16.2193 17.1832 16.236C17.3477 16.4254 17.5255 16.6065 17.6734 16.8076C18.0075 17.2596 18.1903 17.7814 18.3166 18.3249C18.5077 19.1458 18.5874 19.98 18.6423 20.8192C18.6473 20.909 18.6473 20.909 18.732 20.909C19.877 20.909 21.0236 20.909 22.1686 20.9106C22.2351 20.9106 22.2517 20.8924 22.2501 20.8276C22.2484 20.1047 22.2484 19.3834 22.2484 18.6605C22.2484 18.4678 22.3913 18.3049 22.5758 18.2817C22.7769 18.2551 22.9597 18.3731 23.0079 18.5642C23.0195 18.614 23.0228 18.6672 23.0228 18.7187C23.0245 19.4266 23.0245 20.1329 23.0228 20.8409C23.0228 20.894 23.0361 20.9106 23.091 20.9106C23.4466 20.909 23.8022 20.909 24.1578 20.909C24.1761 20.909 24.1944 20.9057 24.2143 20.9057C24.216 20.8924 24.2177 20.8824 24.2177 20.8741C24.2077 20.1578 24.1711 19.4433 24.0814 18.732C24.0282 18.3182 23.9584 17.9077 23.8271 17.5106C23.5214 16.5966 22.727 15.9817 21.7864 15.9318C21.7465 15.9302 21.7 15.9451 21.6684 15.9667C21.1566 16.3174 20.6481 16.6714 20.1379 17.0253C19.9551 17.1516 19.7972 17.15 19.6161 17.0187C19.1358 16.668 18.6556 16.3174 18.1736 15.9701C18.1421 15.9468 18.0955 15.9335 18.0556 15.9335C17.813 15.9385 17.5787 15.99 17.3527 16.0814C17.2812 16.1097 17.2098 16.1462 17.1167 16.1878ZM14.8018 11.6028C14.8018 11.4134 14.8001 11.2256 14.8035 11.0361C14.8035 10.9946 14.7902 10.9697 14.7586 10.9431C14.6672 10.8699 14.5758 10.7952 14.4894 10.7171C14.4528 10.6838 14.4246 10.6755 14.3764 10.6955C13.9244 10.8799 13.4557 11.0029 12.9672 11.0444C12.2493 11.1059 11.5613 10.9979 10.9148 10.6705C10.8816 10.6539 10.8583 10.6572 10.8284 10.6772C10.6988 10.7636 10.5675 10.8483 10.4346 10.9298C10.3697 10.9697 10.275 10.9863 10.2434 11.0428C10.2085 11.1026 10.2318 11.194 10.2318 11.2721C10.2351 11.6194 10.2169 11.9684 10.2501 12.3124C10.3265 13.0901 10.6622 13.7349 11.3037 14.2002C12.0299 14.727 12.9888 14.7303 13.7216 14.2069C14.2916 13.7997 14.6173 13.2347 14.7536 12.555C14.8151 12.2393 14.8018 11.9202 14.8018 11.6028ZM15.081 10.2102C15.1608 10.0257 15.2422 9.85956 15.3087 9.68507C15.3585 9.55545 15.3519 9.42084 15.307 9.28956C15.2156 9.01702 15.0727 8.77606 14.835 8.60489C14.5542 8.40215 14.3431 8.14955 14.2418 7.81386C14.1969 7.66596 14.0905 7.58786 13.946 7.5513C13.6917 7.48482 13.4341 7.45159 13.1732 7.45159C12.4769 7.45159 11.8288 7.63937 11.2173 7.96343C10.8218 8.17115 10.4927 8.452 10.2518 8.83256C10.1554 8.98545 10.0673 9.14332 10.069 9.32612C10.0706 9.6186 10.0906 9.91108 10.1022 10.2019C10.1022 10.2069 10.1072 10.2119 10.1122 10.2185C10.1238 10.2135 10.1338 10.2102 10.1421 10.2036C10.2734 10.1038 10.4113 10.0124 10.5309 9.90111C10.6921 9.75321 10.8849 9.72828 11.0627 9.85458C11.096 9.87784 11.1309 9.90111 11.1658 9.92105C11.7324 10.2434 12.3423 10.3315 12.9821 10.265C13.4491 10.2152 13.8878 10.0723 14.3132 9.8795C14.5293 9.78146 14.6689 9.80805 14.8367 9.97423C14.9115 10.0507 14.9896 10.1221 15.081 10.2102ZM6.855 12.3623C6.855 12.2692 6.84503 12.1745 6.85666 12.0831C6.87826 11.9136 6.83672 11.779 6.67884 11.6942C6.67386 11.6909 6.66887 11.6859 6.66389 11.6809C6.6373 11.6477 6.60739 11.6444 6.56584 11.661C6.4894 11.6925 6.41129 11.7191 6.33319 11.7457C5.47569 12.0232 4.62982 12.0349 3.79891 11.6427C3.77897 11.6344 3.74574 11.641 3.72579 11.6527C3.60614 11.7225 3.48982 11.7972 3.3685 11.8654C3.32862 11.8886 3.31533 11.9119 3.31533 11.9551C3.31699 12.1944 3.312 12.4321 3.31699 12.6714C3.32696 13.2164 3.50311 13.7 3.87702 14.1038C4.39218 14.6589 5.16493 14.8051 5.81968 14.4611C6.32986 14.1936 6.63065 13.7565 6.78188 13.2081C6.85998 12.9306 6.85998 12.6464 6.855 12.3623ZM21.7067 12.3456C21.7067 12.231 21.7 12.1146 21.7083 12.0016C21.7183 11.8886 21.6934 11.7989 21.5887 11.7424C21.5637 11.7291 21.5421 11.7092 21.5255 11.6876C21.4906 11.6444 21.4524 11.6477 21.4059 11.6676C21.3294 11.6992 21.253 11.7274 21.1732 11.7524C20.319 12.0249 19.4765 12.0332 18.6506 11.6427C18.6323 11.6344 18.6007 11.641 18.5824 11.6527C18.4611 11.7241 18.3431 11.8006 18.2202 11.8687C18.1819 11.8903 18.1703 11.9136 18.1703 11.9551C18.172 12.1977 18.1653 12.4404 18.172 12.683C18.1936 13.371 18.4462 13.9476 19.0212 14.3498C19.538 14.7104 20.0964 14.752 20.6581 14.4678C21.2048 14.1919 21.5106 13.7216 21.6518 13.1367C21.715 12.8758 21.7083 12.6099 21.7067 12.3456ZM7.1292 11.0561C7.17407 10.9564 7.21561 10.8683 7.25217 10.7802C7.30202 10.6606 7.29704 10.5392 7.24885 10.4196C7.17407 10.2285 7.06771 10.059 6.8982 9.93767C6.67053 9.77315 6.49604 9.56708 6.41461 9.29454C6.37972 9.18154 6.30327 9.12005 6.19193 9.10177C6.03406 9.07518 5.87619 9.04195 5.71665 9.0353C5.12837 9.00705 4.58329 9.16326 4.06813 9.43414C3.7474 9.60364 3.48317 9.83463 3.29372 10.1487C3.21562 10.2767 3.17407 10.4129 3.17573 10.5625C3.17739 10.7121 3.1857 10.8616 3.19235 11.0112C3.19235 11.0278 3.199 11.0444 3.20565 11.0793C3.28874 11.0079 3.36518 10.9481 3.43331 10.8799C3.57955 10.7337 3.77897 10.7121 3.94848 10.8301C3.97174 10.8467 3.99501 10.8633 4.01827 10.8766C4.42542 11.1142 4.86746 11.194 5.33277 11.1641C5.75155 11.1375 6.1454 11.0129 6.52429 10.8384C6.70045 10.7569 6.86663 10.7918 6.99957 10.9298C7.0378 10.9697 7.07934 11.0079 7.1292 11.0561ZM18.049 11.0544C18.0556 11.0594 18.0623 11.0644 18.0689 11.0694C18.1421 11.0062 18.2185 10.9464 18.2866 10.8783C18.4412 10.7287 18.6323 10.7121 18.8068 10.8334C18.845 10.86 18.8866 10.8866 18.9281 10.9098C19.317 11.1192 19.7357 11.1923 20.1728 11.1658C20.5949 11.1392 20.9904 11.0162 21.371 10.8417C21.5471 10.7603 21.7033 10.7885 21.8413 10.9248C21.8845 10.9663 21.9277 11.0079 21.9809 11.0594C22.0257 10.958 22.0689 10.8716 22.1055 10.7819C22.1537 10.6639 22.1504 10.5459 22.1038 10.4262C22.0274 10.2252 21.9127 10.0523 21.7349 9.92603C21.5122 9.7665 21.3477 9.56043 21.2663 9.29621C21.2314 9.18154 21.1549 9.12172 21.0436 9.1051C20.8774 9.07851 20.7096 9.04527 20.5417 9.03696C20.0598 9.0137 19.6028 9.12504 19.1641 9.31781C18.8483 9.45574 18.5525 9.62857 18.3282 9.89945C18.2069 10.044 18.0872 10.1936 18.0473 10.3847C18.0025 10.6041 18.0374 10.8301 18.049 11.0544ZM11.5446 15.2023C11.4915 15.4084 11.4399 15.6061 11.3934 15.8022C11.3901 15.8188 11.4084 15.8504 11.425 15.862C11.754 16.103 12.0831 16.344 12.4121 16.5849C12.4437 16.6082 12.4653 16.6082 12.4969 16.5866C12.8425 16.3456 13.1882 16.1063 13.5338 15.8687C13.5687 15.8454 13.5737 15.8238 13.5621 15.7839C13.5139 15.6211 13.4724 15.4582 13.4291 15.2954C13.4242 15.2754 13.4192 15.2555 13.4142 15.2289C12.7794 15.43 12.1562 15.4183 11.5446 15.2023ZM4.36061 15.307C4.32903 15.4283 4.29912 15.5413 4.27419 15.656C4.27087 15.6726 4.2825 15.7025 4.2958 15.7141C4.53178 15.8886 4.76775 16.0598 5.00539 16.231C5.01869 16.2409 5.05192 16.2409 5.06688 16.2326C5.31948 16.0598 5.57041 15.8853 5.82135 15.7108C5.83298 15.7025 5.84627 15.6776 5.84129 15.6643C5.81138 15.5546 5.77814 15.4449 5.7449 15.3286C5.28292 15.4566 4.82259 15.4499 4.36061 15.307ZM19.2139 15.307C19.1824 15.43 19.1508 15.5463 19.1242 15.6643C19.1209 15.6792 19.1358 15.7042 19.1508 15.7141C19.3851 15.887 19.6194 16.0581 19.8554 16.2276C19.8703 16.2393 19.9069 16.2393 19.9219 16.2293C20.1728 16.0581 20.4221 15.8853 20.6713 15.7108C20.6846 15.7025 20.6996 15.6776 20.6963 15.666C20.6664 15.5529 20.6331 15.4416 20.5982 15.3253C20.1346 15.4566 19.6726 15.4499 19.2139 15.307Z" fill="#090A0A"/>
</svg>
