<svg width="223" height="462" viewBox="0 0 223 462" fill="none" xmlns="http://www.w3.org/2000/svg">
<mask id="mask0_59_61" style="mask-type:alpha" maskUnits="userSpaceOnUse" x="0" y="0" width="223" height="462">
<rect width="223" height="462" transform="matrix(-1 0 0 1 223 0)" fill="#F5F9FF"/>
</mask>
<g mask="url(#mask0_59_61)">
<path d="M-19.162 -1.37911C-19.3089 -0.32132 -19.2288 -0.422383 -19.1887 -0.328057C-19.142 -0.260682 -19.0886 -0.233732 -19.0286 -0.253945C-18.9018 -0.287632 -18.775 -0.34827 -18.6682 -0.301107L-18.0008 -0.152882L-16.6727 0.150307L-14.0233 0.783635C-12.2614 1.21484 -10.5062 1.66625 -8.751 2.13788C-5.24729 3.0744 -1.7636 4.07155 1.70008 5.12261C8.63409 7.23145 15.5014 9.54916 22.3019 12.0623C35.8963 17.0885 49.2171 22.876 62.1508 29.4586C87.9982 42.617 112.411 58.969 133.527 79.1209C144.071 89.1868 153.761 100.196 162.264 112.101C170.773 123.993 178.074 136.787 183.92 150.229C189.773 163.67 194.177 177.752 197.107 192.13C198.562 199.318 199.663 206.582 200.424 213.885C201.165 221.182 201.579 228.512 201.679 235.849C201.752 243.18 201.579 250.51 200.951 257.841C200.304 265.158 199.263 272.448 197.781 279.643C194.831 294.035 190.16 308.062 183.933 321.322C177.72 334.595 169.999 347.113 161.149 358.722C152.293 370.33 142.356 381.057 131.651 390.907C110.228 410.621 85.9494 426.919 60.429 440.583C47.6555 447.408 34.5416 453.573 21.1807 459.104C14.5003 461.867 7.75316 464.474 0.939268 466.9C-5.87462 469.312 -12.7286 471.596 -19.7093 473.536L-19.8828 472.882C-12.9555 470.929 -6.1082 468.618 0.678993 466.179C7.46619 463.726 14.1866 461.099 20.847 458.316C34.1612 452.737 47.2217 446.532 59.9285 439.66C85.3221 425.915 109.448 409.563 130.677 389.856C141.288 380.012 151.118 369.306 159.861 357.745C168.597 346.183 176.192 333.732 182.292 320.56C188.405 307.395 192.963 293.496 195.819 279.253C197.254 272.131 198.255 264.922 198.862 257.679C199.443 250.436 199.617 243.153 199.536 235.883C199.43 228.613 199.009 221.35 198.268 214.121C197.501 206.891 196.406 199.703 194.958 192.588C192.042 178.358 187.671 164.438 181.864 151.152C176.065 137.865 168.824 125.226 160.395 113.462C151.966 101.698 142.363 90.8105 131.905 80.8525C110.963 60.9161 86.7236 44.7123 61.0363 31.682C48.1827 25.16 34.9353 19.4331 21.4277 14.4473C14.6672 11.9612 7.84659 9.6637 0.959291 7.5818C-2.48436 6.54422 -5.94136 5.55381 -9.41838 4.63077C-11.1536 4.17261 -12.8954 3.7212 -14.6372 3.29673L-17.24 2.64993L-18.5481 2.35348L-19.2021 2.21199C-19.3155 2.19852 -19.4156 2.13788 -19.5158 2.07724C-19.5625 2.05029 -19.6159 2.05029 -19.6759 2.06377C-19.736 2.09745 -19.7827 2.02334 -19.9429 2.55561L-19.162 -1.37911Z" fill="url(#paint0_linear_59_61)"/>
<path d="M-22.1788 7.08997C-22.2856 8.1006 -22.2255 7.99953 -22.1988 8.09386C-22.1655 8.16123 -22.1254 8.18145 -22.0854 8.16797C-21.9986 8.13428 -21.9052 8.07365 -21.8318 8.12081L-21.3646 8.2623L-20.4303 8.55201L-18.5683 9.15165C-17.327 9.56264 -16.099 9.99384 -14.8644 10.4385C-12.4018 11.3346 -9.9592 12.2846 -7.52329 13.2885C-2.65145 15.2963 2.16699 17.5129 6.94539 19.9115C16.4955 24.7086 25.8521 30.2334 34.9351 36.5128C53.0876 49.0648 70.2325 64.6757 85.0682 83.9046C92.4761 93.5123 99.2833 104.016 105.256 115.376C111.229 126.728 116.361 138.93 120.466 151.765C124.577 164.593 127.673 178.035 129.729 191.752C130.75 198.618 131.524 205.551 132.058 212.511C132.579 219.477 132.866 226.471 132.939 233.471C132.992 240.471 132.866 247.465 132.425 254.458C131.971 261.445 131.237 268.398 130.196 275.264C128.121 289.002 124.844 302.383 120.472 315.042C116.108 327.709 110.682 339.655 104.469 350.738C98.2489 361.814 91.2681 372.055 83.7468 381.447C68.6975 400.259 51.6461 415.816 33.7204 428.853C24.7509 435.368 15.5412 441.25 6.15121 446.532C1.45957 449.166 -3.28546 451.653 -8.06386 453.97C-12.8489 456.275 -17.6674 458.451 -22.5659 460.304L-22.686 459.684C-17.8209 457.817 -13.0091 455.614 -8.24405 453.283C-3.479 450.945 1.24601 448.432 5.9243 445.777C15.2742 440.455 24.4506 434.526 33.3801 427.977C51.2123 414.866 68.1636 399.255 83.0728 380.45C90.5207 371.058 97.428 360.837 103.568 349.808C109.701 338.772 115.04 326.894 119.325 314.321C123.616 301.756 126.819 288.496 128.828 274.9C129.836 268.102 130.536 261.223 130.964 254.31C131.371 247.398 131.497 240.451 131.437 233.511C131.364 226.572 131.07 219.639 130.543 212.74C130.009 205.84 129.235 198.982 128.221 192.19C126.172 178.607 123.102 165.321 119.024 152.641C114.953 139.961 109.868 127.894 103.948 116.676C98.0286 105.451 91.2815 95.0619 83.9337 85.5553C69.2248 66.5352 52.2 51.0658 34.1542 38.6284C25.1247 32.4029 15.8215 26.9387 6.3314 22.182C1.58637 19.8104 -3.20538 17.614 -8.04384 15.6332C-10.4597 14.6427 -12.889 13.6995 -15.3316 12.8169C-16.5529 12.3789 -17.7742 11.9477 -18.9955 11.5435L-20.8307 10.9506L-21.7517 10.6676L-22.2122 10.5328C-22.2923 10.5194 -22.359 10.4587 -22.4324 10.4048C-22.4658 10.3779 -22.5058 10.3779 -22.5459 10.3914C-22.5859 10.4048 -22.6126 10.3375 -22.7261 10.8428L-22.1788 7.08997Z" fill="url(#paint1_linear_59_61)"/>
<path d="M-2.57282 23.4448C-2.62642 24.3783 -2.59664 24.2904 -2.58473 24.3716C-2.56686 24.4324 -2.549 24.4527 -2.53113 24.4392C-2.48944 24.4054 -2.4418 24.3513 -2.40606 24.3918L-2.1738 24.5204L-1.71522 24.7842L-0.798063 25.3389C-0.190595 25.7177 0.416872 26.1169 1.02434 26.5295C2.23927 27.3548 3.4423 28.241 4.63937 29.1678C7.03946 31.0281 9.41573 33.0778 11.7682 35.2899C16.4731 39.7276 21.0827 44.835 25.5613 50.646C34.5065 62.2611 42.9515 76.704 50.2649 94.4886C53.9157 103.378 57.2687 113.099 60.2107 123.604C63.1528 134.103 65.6839 145.394 67.7088 157.266C69.7337 169.131 71.2583 181.565 72.2707 194.262C72.7769 200.615 73.1521 207.028 73.4201 213.468C73.6762 219.915 73.8192 226.382 73.8549 232.856C73.8787 239.329 73.8192 245.803 73.6048 252.271C73.3785 258.731 73.0211 265.164 72.5089 271.516C71.4905 284.221 69.8706 296.607 67.7147 308.317C65.5648 320.033 62.8907 331.087 59.8296 341.336C56.7624 351.584 53.3261 361.055 49.6217 369.748C42.207 387.154 33.8037 401.542 24.9717 413.604C20.5526 419.631 16.0145 425.077 11.387 429.954C9.07626 432.39 6.74168 434.69 4.38328 436.834C2.02487 438.965 -0.34544 440.981 -2.7634 442.693L-2.82295 442.118C-0.422862 440.393 1.9415 438.35 4.29394 436.198C6.64043 434.034 8.96906 431.713 11.2739 429.251C15.8835 424.326 20.4037 418.847 24.7989 412.785C33.5893 400.656 41.939 386.213 49.2822 368.814C52.9509 360.122 56.3575 350.671 59.3829 340.463C62.4024 330.255 65.0347 319.262 67.1489 307.634C69.2632 296.012 70.8414 283.74 71.83 271.165C72.3243 264.873 72.6697 258.508 72.8841 252.115C73.0866 245.722 73.1462 239.289 73.1164 232.876C73.0807 226.456 72.9318 220.043 72.6757 213.657C72.4137 207.278 72.0325 200.926 71.5322 194.648C70.5257 182.086 69.013 169.794 67 158.064C64.993 146.334 62.4857 135.172 59.5675 124.795C56.6493 114.411 53.3261 104.798 49.7051 96.0039C42.4691 78.4155 34.0777 64.1079 25.1861 52.601C20.7372 46.8442 16.1515 41.7841 11.4763 37.387C9.13581 35.1952 6.77741 33.1658 4.39519 31.3258C3.20407 30.4057 2.00701 29.5331 0.803983 28.7213C0.202471 28.3154 -0.39904 27.9231 -1.00055 27.5442L-1.9058 26.9963L-2.35842 26.7392L-2.58473 26.6175C-2.62046 26.6039 -2.6562 26.5498 -2.69193 26.5025C-2.7098 26.4822 -2.72766 26.4822 -2.75149 26.4889C-2.76935 26.5092 -2.78722 26.4483 -2.84082 26.9151L-2.57282 23.4448Z" fill="url(#paint2_linear_59_61)"/>
</g>
<defs>
<linearGradient id="paint0_linear_59_61" x1="90.8758" y1="-1.37911" x2="90.8758" y2="473.536" gradientUnits="userSpaceOnUse">
<stop stop-color="#B8E1D8"/>
<stop offset="1" stop-color="#DBFFF7"/>
</linearGradient>
<linearGradient id="paint1_linear_59_61" x1="55.1122" y1="7.08997" x2="55.1122" y2="460.304" gradientUnits="userSpaceOnUse">
<stop stop-color="#B8E1D8"/>
<stop offset="1" stop-color="#DBFFF7"/>
</linearGradient>
<linearGradient id="paint2_linear_59_61" x1="35.5095" y1="23.4448" x2="35.5095" y2="442.693" gradientUnits="userSpaceOnUse">
<stop stop-color="#B8E1D8"/>
<stop offset="1" stop-color="#DBFFF7"/>
</linearGradient>
</defs>
</svg>
