<svg width="25" height="24" viewBox="0 0 25 24" fill="none" xmlns="http://www.w3.org/2000/svg">
<g clip-path="url(#clip0_203_135)">
<path fill-rule="evenodd" clip-rule="evenodd" d="M17.1001 21.75C17.1001 22.1642 16.7643 22.5 16.3501 22.5H8.8501C8.43588 22.5 8.1001 22.1642 8.1001 21.75C8.1001 21.3358 8.43588 21 8.8501 21H16.3501C16.7643 21 17.1001 21.3358 17.1001 21.75ZM20.8501 9.75C20.8566 12.2836 19.6927 14.6783 17.6963 16.2384C17.3231 16.5246 17.103 16.9672 17.1001 17.4375V18C17.1001 18.8284 16.4285 19.5 15.6001 19.5H9.6001C8.77167 19.5 8.1001 18.8284 8.1001 18V17.4375C8.09979 16.9728 7.88407 16.5344 7.51604 16.2506C5.52489 14.6999 4.35744 12.3197 4.3501 9.79594C4.32572 5.32781 7.93697 1.60687 12.4013 1.5C14.6236 1.44645 16.7735 2.29194 18.3639 3.84496C19.9543 5.39798 20.8507 7.52709 20.8501 9.75ZM19.3501 9.75C19.3506 7.93116 18.6171 6.18908 17.3157 4.91842C16.0144 3.64775 14.2553 2.95604 12.437 3C8.78072 3.08625 5.83041 6.13031 5.8501 9.78656C5.85704 11.8506 6.81254 13.7969 8.44135 15.0647C9.17364 15.634 9.60143 16.51 9.6001 17.4375V18H15.6001V17.4375C15.6022 16.5074 16.0336 15.6303 16.7692 15.0609C18.4032 13.784 19.3557 11.8238 19.3501 9.75ZM17.8398 8.87438C17.4415 6.64954 15.6997 4.90815 13.4748 4.51031C13.0663 4.44145 12.6793 4.71679 12.6104 5.12531C12.5415 5.53383 12.8169 5.92082 13.2254 5.98969C14.7788 6.25125 16.097 7.56937 16.3604 9.12562C16.4217 9.4863 16.7343 9.75014 17.1001 9.75C17.1425 9.74975 17.1848 9.7463 17.2267 9.73969C17.6349 9.67 17.9094 9.28262 17.8398 8.87438Z" fill="#0D171C"/>
</g>
<defs>
<clipPath id="clip0_203_135">
<rect width="24" height="24" fill="white" transform="translate(0.600098)"/>
</clipPath>
</defs>
</svg>
