<svg width="29" height="31" viewBox="0 0 29 31" fill="none" xmlns="http://www.w3.org/2000/svg">
<path d="M6.86907 16.0278H11.4484C11.6509 16.0278 11.845 15.9474 11.9881 15.8043C12.1313 15.6612 12.2117 15.467 12.2117 15.2646C12.2117 15.0622 12.1313 14.8681 11.9881 14.7249C11.845 14.5818 11.6509 14.5014 11.4484 14.5014H6.86907C6.66664 14.5014 6.47251 14.5818 6.32938 14.7249C6.18625 14.8681 6.10583 15.0622 6.10583 15.2646C6.10583 15.467 6.18625 15.6612 6.32938 15.8043C6.47251 15.9474 6.66664 16.0278 6.86907 16.0278Z" fill="#141F38"/>
<path d="M16.0278 17.5543H6.86907C6.66664 17.5543 6.47251 17.6347 6.32938 17.7778C6.18625 17.921 6.10583 18.1151 6.10583 18.3175C6.10583 18.5199 6.18625 18.7141 6.32938 18.8572C6.47251 19.0003 6.66664 19.0808 6.86907 19.0808H16.0278C16.2303 19.0808 16.4244 19.0003 16.5675 18.8572C16.7106 18.7141 16.7911 18.5199 16.7911 18.3175C16.7911 18.1151 16.7106 17.921 16.5675 17.7778C16.4244 17.6347 16.2303 17.5543 16.0278 17.5543Z" fill="#141F38"/>
<path d="M16.0052 20.6072H6.86907C6.66664 20.6072 6.47251 20.6876 6.32938 20.8308C6.18625 20.9739 6.10583 21.168 6.10583 21.3704C6.10583 21.5729 6.18625 21.767 6.32938 21.9101C6.47251 22.0533 6.66664 22.1337 6.86907 22.1337H16.0052C16.2076 22.1337 16.4017 22.0533 16.5449 21.9101C16.688 21.767 16.7684 21.5729 16.7684 21.3704C16.7684 21.168 16.688 20.9739 16.5449 20.8308C16.4017 20.6876 16.2076 20.6072 16.0052 20.6072Z" fill="#141F38"/>
<path d="M24.4234 19.9048V9.15876L15.273 0H3.81615C2.80405 0 1.83339 0.402058 1.11773 1.11772C0.402058 1.83339 0 2.80404 0 3.81615V26.7131C0 27.7252 0.402058 28.6958 1.11773 29.4115C1.83339 30.1272 2.80405 30.5292 3.81615 30.5292H20.6072C21.0836 30.5288 21.5556 30.4384 21.9983 30.2627C22.7016 30.4932 23.4452 30.5749 24.1817 30.5027C24.9183 30.4305 25.6318 30.206 26.277 29.8433C26.9222 29.4807 27.4849 28.9879 27.9295 28.3962C28.374 27.8045 28.6907 27.1268 28.8594 26.4062C29.0281 25.6856 29.0452 24.9378 28.9095 24.2102C28.7738 23.4827 28.4883 22.7913 28.0712 22.1799C27.6541 21.5686 27.1144 21.0506 26.4864 20.659C25.8584 20.2673 25.1559 20.0105 24.4234 19.9048ZM21.4831 8.39673H18.3175C17.7105 8.39609 17.1284 8.15466 16.6992 7.72539C16.2699 7.29613 16.0285 6.7141 16.0278 6.10703V2.92651L21.4831 8.39673ZM3.81615 29.0028C3.20908 29.0021 2.62706 28.7607 2.19779 28.3314C1.76853 27.9022 1.52709 27.3201 1.52646 26.7131V3.81615C1.52709 3.20908 1.76853 2.62706 2.19779 2.19779C2.62706 1.76853 3.20908 1.52709 3.81615 1.52646H14.5014V6.10584C14.5014 7.11795 14.9034 8.0886 15.6191 8.80427C16.3348 9.51994 17.3054 9.92199 18.3175 9.92199H22.8969V19.9048C21.9112 20.0464 20.9848 20.4611 20.2226 21.1018C19.4603 21.7426 18.8926 22.5839 18.5836 23.5306C18.2746 24.4772 18.2367 25.4915 18.4742 26.4585C18.7117 27.4256 19.2151 28.3069 19.9275 29.0028H3.81615ZM23.6601 29.0028C22.9054 29.0028 22.1676 28.7789 21.54 28.3596C20.9124 27.9403 20.4233 27.3443 20.1345 26.647C19.8456 25.9497 19.7701 25.1824 19.9173 24.4421C20.0646 23.7018 20.428 23.0219 20.9617 22.4882C21.4954 21.9545 22.1754 21.591 22.9156 21.4438C23.6559 21.2965 24.4232 21.3721 25.1205 21.6609C25.8178 21.9498 26.4138 22.4389 26.8332 23.0665C27.2525 23.694 27.4763 24.4318 27.4763 25.1866C27.4752 26.1984 27.0728 27.1684 26.3573 27.8838C25.6419 28.5992 24.6719 29.0016 23.6601 29.0028Z" fill="#141F38"/>
<path d="M24.1998 23.1205C24.1884 23.1092 24.1753 23.1014 24.1634 23.0913C24.1515 23.0812 24.1366 23.0686 24.1223 23.0579C24.0718 23.018 24.0165 22.9848 23.9577 22.9589L23.9523 22.9553C23.8899 22.9307 23.8246 22.9145 23.7579 22.907L23.7084 22.9023C23.6437 22.8972 23.5786 22.9004 23.5146 22.9118L23.5033 22.9154C23.4431 22.9281 23.3846 22.9481 23.3292 22.975C23.3137 22.9828 23.2994 22.9899 23.2845 22.9989C23.2253 23.0312 23.1708 23.0713 23.1223 23.1181L21.5958 24.6446C21.4562 24.7884 21.3787 24.9814 21.3801 25.1819C21.3816 25.3824 21.4619 25.5742 21.6037 25.716C21.7454 25.8578 21.9373 25.9381 22.1378 25.9395C22.3383 25.941 22.5313 25.8635 22.6751 25.7238L22.8987 25.5002V26.7131C22.8987 26.9155 22.9791 27.1096 23.1222 27.2527C23.2654 27.3959 23.4595 27.4763 23.6619 27.4763C23.8644 27.4763 24.0585 27.3959 24.2016 27.2527C24.3447 27.1096 24.4252 26.9155 24.4252 26.7131V25.5026L24.6488 25.7262C24.7926 25.8659 24.9856 25.9434 25.1861 25.9419C25.3866 25.9405 25.5784 25.8602 25.7202 25.7184C25.862 25.5766 25.9422 25.3848 25.9437 25.1843C25.9452 24.9838 25.8677 24.7908 25.728 24.647L24.1998 23.1205Z" fill="#141F38"/>
</svg>
