<svg width="22" height="24" viewBox="0 0 22 24" fill="none" xmlns="http://www.w3.org/2000/svg">
<path d="M2.63806 6.86895C2.63806 6.13747 2.63567 5.43621 2.63886 4.73495C2.64363 3.60514 3.24759 3.00564 4.38946 3.00087C5.25124 2.99769 6.11301 2.98815 6.97478 3.00564C7.31138 3.0128 7.58113 2.93488 7.84133 2.70987C8.32195 2.29405 8.82883 1.90843 9.32935 1.51566C10.363 0.704676 11.629 0.7007 12.6611 1.5085C13.2038 1.93308 13.7297 2.37832 14.2828 2.78938C14.4387 2.90546 14.6599 2.98577 14.8541 2.98974C15.7819 3.01041 16.7097 2.99451 17.6376 3.00008C18.75 3.00644 19.3539 3.61388 19.3587 4.72223C19.3619 5.38453 19.3611 6.04683 19.3635 6.70914C19.3635 6.7481 19.373 6.78785 19.385 6.88088C19.8592 7.26252 20.355 7.67914 20.8706 8.07032C21.6464 8.65948 21.9974 9.42116 21.9926 10.3999C21.9751 13.9897 21.9536 17.5795 21.9997 21.1685C22.0204 22.7801 20.7672 23.9592 19.1996 23.9505C13.725 23.9187 8.24954 23.9211 2.77492 23.9489C1.22644 23.9577 -0.0188808 22.7762 0.00021675 21.182C0.0439819 17.5795 0.0232929 13.9762 0.00817404 10.3737C0.0041954 9.41003 0.359091 8.65948 1.11901 8.07907C1.6235 7.69345 2.11288 7.28875 2.63806 6.86895ZM12.9817 15.4439C14.7881 14.0008 16.5761 12.5721 18.38 11.1314C18.38 10.9748 18.38 10.8301 18.38 10.6861C18.38 8.7525 18.3808 6.81886 18.3792 4.88522C18.3784 4.14977 18.2232 3.99552 17.4975 3.99552C13.1632 3.99473 8.82883 3.99473 4.4937 3.99552C3.77197 3.99552 3.6184 4.15136 3.6184 4.89078C3.61681 6.82442 3.6176 8.75807 3.61919 10.6917C3.61919 10.8483 3.63511 11.0042 3.64386 11.1544C5.45096 12.5975 7.23817 14.0247 9.01742 15.4455C10.2604 14.3713 11.6752 14.3284 12.9817 15.4439ZM20.2698 22.7396C20.2738 22.6903 20.2778 22.6418 20.2818 22.5925C20.172 22.5019 20.0637 22.4104 19.9531 22.3214C17.3678 20.2526 14.7817 18.1846 12.1956 16.1158C11.341 15.432 10.655 15.4304 9.80281 16.1126C7.20634 18.1893 4.61067 20.2661 2.015 22.3436C1.90758 22.4295 1.80891 22.5265 1.60361 22.7094C2.02217 22.8032 2.32375 22.9296 2.62533 22.9296C8.20498 22.9415 13.7838 22.9415 19.3635 22.9296C19.6667 22.9296 19.9683 22.8056 20.2698 22.7396ZM1.06649 10.3721C0.912918 11.071 0.974985 21.4046 1.13572 21.7688C3.49506 19.8829 5.84405 18.0041 8.23124 16.0959C5.817 14.1678 3.46164 12.2858 1.06649 10.3721ZM20.8483 21.76C20.8857 21.7441 20.9223 21.7282 20.9597 21.7123C20.9597 17.954 20.9597 14.1956 20.9597 10.3482C18.5272 12.2914 16.1647 14.1789 13.7647 16.0967C16.1615 18.0128 18.5049 19.886 20.8483 21.76ZM9.16384 2.95873C10.4123 2.95873 11.5964 2.95873 12.8194 2.95873C11.4834 1.57291 10.6089 1.56973 9.16384 2.95873ZM2.60384 8.15778C2.11686 8.56168 1.71263 8.8972 1.27418 9.26135C1.74605 9.63822 2.13993 9.95307 2.60384 10.3236C2.60384 9.57382 2.60384 8.92742 2.60384 8.15778ZM19.4009 8.17527C19.4009 8.92662 19.4009 9.5778 19.4009 10.3156C19.8656 9.94353 20.2627 9.6255 20.7226 9.25738C20.273 8.89005 19.8672 8.5577 19.4009 8.17527Z" fill="#090A0A"/>
<path d="M10.9964 13.4451C8.69996 13.4451 6.81408 11.5631 6.81726 9.27565C6.82045 6.97786 8.69121 5.11896 10.9988 5.11896C13.3056 5.11896 15.186 6.99138 15.1772 9.27883C15.1676 11.579 13.2953 13.4459 10.9964 13.4451ZM13.3773 11.3214C14.5152 10.2536 14.4396 8.19434 13.1974 6.99376C11.8996 5.73992 9.82512 5.82579 8.6188 7.1822C7.4069 8.54497 7.70769 10.5192 8.6363 11.3198C9.04133 11.0248 9.43919 10.7346 9.83706 10.4444C9.00552 9.36788 8.97449 8.44399 9.75351 7.70457C10.4291 7.06293 11.4699 7.0367 12.1781 7.64334C13.0088 8.35494 12.9985 9.24544 12.1654 10.45C12.568 10.7394 12.9706 11.0288 13.3773 11.3214Z" fill="#090A0A"/>
</svg>
