<svg width="42" height="31" viewBox="0 0 42 31" fill="none" xmlns="http://www.w3.org/2000/svg">
<path d="M38.6127 31C38.2346 30.4638 37.881 29.9073 37.4695 29.3972C37.1322 28.9792 37.0841 28.5661 37.2585 28.078C37.5037 27.3911 37.7409 26.7001 37.9413 25.9994C38.0472 25.627 38.1157 25.231 38.1173 24.8448C38.1312 21.6376 38.132 18.4313 38.1173 15.2242C38.1149 14.7524 38.2795 14.4533 38.7064 14.2733C39.0112 14.1445 39.3069 13.9946 39.7087 13.8055C39.7355 14.1078 39.769 14.3107 39.769 14.5136C39.7722 17.5717 39.7991 20.6297 39.7575 23.6877C39.7404 24.9108 39.9124 26.0695 40.323 27.2192C40.9749 29.0428 40.9529 28.6386 39.8561 30.1191C39.6264 30.4288 39.3542 30.7066 39.1016 30.9992C38.9378 31 38.7757 31 38.6127 31Z" fill="#090A0A"/>
<path d="M0.0219856 9.95961C1.32733 9.33138 2.63024 8.70397 3.93314 8.07655C9.41691 5.43652 14.9015 2.79975 20.3812 0.152382C20.7968 -0.0488795 21.1634 -0.051324 21.5774 0.148308C28.1913 3.33916 34.8085 6.5235 41.4257 9.70864C41.9472 9.95961 42.0237 10.1356 41.9309 10.9227C41.1665 11.2935 40.3794 11.6773 39.5899 12.057C33.728 14.8779 27.8597 17.6858 22.0117 20.5344C21.2799 20.8905 20.703 20.897 19.9664 20.5385C13.6067 17.4438 7.22666 14.389 0.852292 11.3236C0.0195411 10.9235 -0.0513486 10.8184 0.0219856 9.95961Z" fill="#090A0A"/>
<path d="M34.5071 16.3739C34.728 16.6713 34.8143 20.4399 34.6766 22.2993C33.7241 22.7597 32.7512 23.2306 31.7783 23.7C28.7194 25.1732 25.6687 26.6651 22.5952 28.1074C21.5759 28.5857 20.4506 28.6044 19.441 28.131C15.5339 26.2985 11.657 24.404 7.76704 22.5356C7.47126 22.3938 7.28711 22.1885 7.28711 21.8503C7.28711 20.1172 7.28874 18.3833 7.29118 16.6501C7.29118 16.5972 7.31074 16.545 7.34089 16.3967C7.54378 16.4546 7.74586 16.4823 7.92104 16.5662C9.99559 17.5587 12.0661 18.5593 14.1382 19.5574C16.2347 20.567 18.3329 21.5725 20.4253 22.5894C20.8116 22.7768 21.1668 22.7711 21.5498 22.5869C25.7046 20.5817 29.861 18.5821 34.0182 16.5825C34.1722 16.5067 34.3352 16.4464 34.5071 16.3739Z" fill="#090A0A"/>
</svg>
