<svg width="38" height="34" viewBox="0 0 38 34" fill="none" xmlns="http://www.w3.org/2000/svg">
<path d="M14.6411 18.348C13.1458 18.5648 11.7061 18.7723 10.2675 18.9845C9.19738 19.1416 8.44974 19.7206 8.10839 20.738C7.76941 21.7496 8.00209 22.6569 8.74738 23.4364C9.76313 24.4995 10.7683 25.5721 11.9187 26.79C11.7309 27.893 11.5159 29.2586 11.2596 30.6159C11.0423 31.7694 11.2572 32.7716 12.2482 33.4819C13.2285 34.1852 14.2526 34.1301 15.2978 33.5581C16.5026 32.8993 17.7321 32.2839 18.9959 31.6252C20.2491 32.2781 21.5199 32.9357 22.7861 33.6015C23.4145 33.932 24.0664 34.0961 24.7751 33.9285C26.2291 33.5862 27.0358 32.2968 26.7629 30.7507C26.5456 29.5211 26.3259 28.2915 26.1121 27.0607C26.0826 26.8896 26.0802 26.7138 26.1983 26.6458C27.2247 25.5662 28.2511 24.4878 29.2763 23.4071C30.0015 22.6428 30.2248 21.7461 29.8952 20.7556C29.5563 19.7405 28.8204 19.1498 27.7491 18.9868C27.2047 18.9036 26.6602 18.8274 26.1145 18.7489C25.2204 18.6188 24.3251 18.4875 23.3542 18.3456C22.9774 17.5966 22.583 16.816 22.1908 16.0341C21.9109 15.475 21.6392 14.9112 21.3546 14.3544C20.8739 13.4155 20.0884 12.922 19.0372 12.9056C17.9565 12.888 17.1451 13.3874 16.6526 14.3415C16.0514 15.5055 15.4797 16.6835 14.8939 17.8545C14.8183 18.0128 14.7356 18.1663 14.6411 18.348ZM22.4672 19.5401C24.0995 19.7792 25.7105 20.0312 27.3263 20.2457C27.9452 20.3278 28.4389 20.554 28.6421 21.1577C28.8547 21.7883 28.5606 22.2654 28.1141 22.7214C26.9909 23.8677 25.9042 25.0505 24.6641 26.3645C24.8897 27.6867 25.1495 29.2832 25.4413 30.8726C25.5558 31.4986 25.505 32.0472 24.9487 32.441C24.4149 32.8184 23.8916 32.7024 23.346 32.4105C21.8955 31.6357 20.4298 30.8891 18.9947 30.1436C17.5006 30.923 16.0526 31.6685 14.6152 32.4351C14.0648 32.7282 13.5333 32.8056 13.0136 32.414C12.4951 32.0225 12.4289 31.4833 12.5553 30.8844C12.6592 30.3885 12.7372 29.8868 12.8222 29.3863C13.01 28.2751 13.1955 27.1651 13.3266 26.3856C12.0285 25.0001 10.9135 23.7904 9.77258 22.603C9.36864 22.1822 9.17848 21.7192 9.35329 21.1682C9.53046 20.6115 9.96392 20.3477 10.545 20.2668C12.1986 20.0359 13.8486 19.7874 15.5293 19.5413C16.2427 18.1112 16.9691 16.6859 17.6648 15.2453C17.9494 14.6557 18.3215 14.2044 19.0243 14.2126C19.6999 14.2208 20.0577 14.6674 20.3317 15.2335C21.0286 16.6753 21.7514 18.103 22.4672 19.5401Z" fill="#090A0A"/>
<path d="M25.4045 17.3364C25.91 16.4198 26.3801 15.5664 26.9258 14.5748C26.6293 13.5116 26.1982 12.3101 25.9714 11.0711C25.6525 9.3293 24.7419 8.41852 22.9301 8.23332C21.9982 8.1372 21.1005 8.18878 20.1816 8.22043C19.0879 8.25911 17.9812 8.05867 16.8934 8.13603C15.7135 8.21925 14.5276 8.43025 13.3878 8.74087C13.0028 8.84637 12.6 9.37853 12.463 9.79817C11.9374 11.4099 11.517 13.0556 11.0835 14.5935C11.6067 15.5418 12.0851 16.4104 12.5894 17.3247C12.9674 17.2719 13.3678 17.2157 13.7835 17.1571C14.3434 16.04 14.8879 14.937 15.4453 13.841C16.1871 12.3805 17.3918 11.6045 19.0371 11.6139C20.66 11.6244 21.8352 12.4191 22.5639 13.8504C23.1143 14.9299 23.6446 16.0177 24.2057 17.1453C24.5954 17.2086 24.9958 17.2719 25.4045 17.3364Z" fill="#090A0A"/>
<path d="M5.62568 19.7476C6.05442 18.8884 6.49262 18.0397 6.90246 17.177C7.17294 16.6085 7.53318 16.1806 8.21823 16.176C8.90682 16.1713 9.28005 16.5956 9.53635 17.1676C9.61548 17.3446 9.71588 17.5122 9.82808 17.7244C10.2521 17.6634 10.669 17.6037 11.0942 17.5415C10.5474 15.7165 9.61548 14.8643 8.21823 14.8678C7.18239 14.8713 6.40285 15.3355 5.91269 16.2322C5.50993 16.9683 5.15441 17.7291 4.74929 18.5379C4.02291 18.6469 3.27172 18.777 2.5158 18.8684C1.38075 19.0056 0.548068 19.5436 0.165387 20.6314C-0.226744 21.7449 0.101604 22.6921 0.941377 23.4997C1.49059 24.0283 2.01737 24.5816 2.58785 25.1595C2.46029 25.9272 2.33037 26.7337 2.18982 27.539C2.00792 28.5822 2.35517 29.4367 3.17723 30.0732C4.02999 30.7343 4.98906 30.7906 5.95521 30.3334C6.71585 29.9736 7.45286 29.5621 8.21586 29.166C8.79933 29.4613 9.37336 29.7509 10.01 30.0732C10.1021 29.6043 10.1824 29.1917 10.2698 28.7451C9.5706 28.3783 8.89737 28.0254 8.22531 27.6726C7.32648 28.1415 6.45246 28.5857 5.59025 29.0534C5.06819 29.3371 4.55677 29.4285 4.03944 29.0745C3.49731 28.7041 3.40872 28.1743 3.51739 27.5718C3.68983 26.6141 3.84928 25.653 4.00283 24.7633C3.28117 24.0189 2.61502 23.3039 1.91934 22.6205C1.46579 22.1751 1.18351 21.6957 1.41382 21.0557C1.63351 20.4462 2.13548 20.2305 2.74376 20.1543C3.69692 20.0371 4.64771 19.8882 5.62568 19.7476Z" fill="#090A0A"/>
<path d="M26.8244 17.5403C27.3429 17.6095 27.748 17.6634 28.178 17.7208C28.3091 17.4723 28.439 17.2555 28.5406 17.0269C28.7768 16.4936 29.1748 16.1818 29.7654 16.1771C30.3855 16.1712 30.7764 16.5158 31.0374 17.0574C31.4685 17.9541 31.9197 18.8391 32.3709 19.7452C33.3418 19.8858 34.289 20.0394 35.2422 20.1578C35.8753 20.2363 36.3867 20.4567 36.6017 21.099C36.8095 21.7215 36.5237 22.1798 36.0926 22.61C35.4135 23.2875 34.7615 23.9919 34.0056 24.782C34.1225 25.4724 34.2666 26.3128 34.4083 27.1545C34.4414 27.3467 34.4674 27.5401 34.4993 27.7323C34.5902 28.2809 34.4414 28.7428 33.9749 29.0674C33.5083 29.3921 33.0217 29.371 32.528 29.112C31.6256 28.6384 30.7197 28.1707 29.7748 27.6796C29.1063 28.0277 28.4331 28.377 27.735 28.7404C27.8201 29.1905 27.8992 29.6031 27.9902 30.0802C28.6256 29.7555 29.1973 29.4636 29.7784 29.1659C30.4929 29.5363 31.1886 29.8962 31.8831 30.256C32.8764 30.7718 33.8615 30.7683 34.7757 30.1083C35.6887 29.4484 36.0005 28.5283 35.795 27.4252C35.6532 26.6598 35.5339 25.8909 35.4182 25.1981C36.0099 24.5862 36.5438 24.0154 37.0989 23.4668C37.9103 22.6639 38.2198 21.7261 37.8383 20.6395C37.4568 19.5541 36.6312 19.0044 35.4938 18.8672C34.7544 18.7781 34.0186 18.6562 33.2544 18.5449C32.8906 17.8193 32.5363 17.1054 32.176 16.3928C31.6717 15.3941 30.8697 14.8502 29.7288 14.8689C28.6161 14.8877 27.8402 15.4398 27.3594 16.4209C27.1894 16.769 27.0264 17.1172 26.8244 17.5403Z" fill="#090A0A"/>
<path d="M15.43 3.53409C15.4064 5.51388 16.9962 7.1221 18.9935 7.13851C20.973 7.15492 22.5841 5.55608 22.5947 3.56573C22.6041 1.61055 21.0203 0.0152272 19.0561 -1.09829e-05C17.0482 -0.0152492 15.4537 1.53905 15.43 3.53409Z" fill="#090A0A"/>
<path d="M27.4348 11.4017C27.6899 12.3054 27.9037 13.0661 28.1281 13.8597C31.4258 12.8481 33.0522 14.631 34.0597 17.3047C35.151 17.5192 36.1668 17.7185 37.218 17.9248C37.218 17.9166 37.2322 17.8474 37.2156 17.7865C36.7609 16.1525 36.3132 14.5161 35.8396 12.888C35.6577 12.2632 35.2302 11.8471 34.5699 11.7158C33.5731 11.5177 32.5963 11.3032 31.5439 11.4439C30.6604 11.5611 29.7427 11.4228 28.8403 11.4052C28.401 11.3946 27.9639 11.4017 27.4348 11.4017Z" fill="#090A0A"/>
<path d="M9.88921 13.8773C10.1124 13.0767 10.325 12.3148 10.5825 11.3958C10.1455 11.3958 9.7959 11.3431 9.46991 11.4052C8.2758 11.6314 7.09469 11.4931 5.89704 11.4439C4.92735 11.404 3.92458 11.6584 2.97378 11.9151C2.65488 12.0007 2.32417 12.4578 2.21314 12.8118C1.69345 14.4657 1.24817 16.1431 0.780451 17.8123C0.766277 17.8615 0.787538 17.9201 0.787538 17.9225C1.81038 17.722 2.8226 17.5228 3.89978 17.3118C4.05096 17.0129 4.2482 16.6776 4.39584 16.3213C5.34191 14.0426 7.37461 13.0322 9.88921 13.8773Z" fill="#090A0A"/>
<path d="M7.63697 10.5682C9.28108 10.5718 10.6075 9.27416 10.6181 7.65188C10.6287 5.99208 9.31415 4.67691 7.64169 4.67456C5.98931 4.67222 4.68418 5.9534 4.67237 7.58975C4.66056 9.26713 5.95152 10.5647 7.63697 10.5682Z" fill="#090A0A"/>
<path d="M30.33 4.67339C28.6811 4.68746 27.3795 5.98857 27.3819 7.61789C27.3843 9.27534 28.713 10.58 30.3878 10.5682C32.0343 10.5565 33.3323 9.25541 33.3276 7.62023C33.3229 5.94637 32.0142 4.65933 30.33 4.67339Z" fill="#090A0A"/>
</svg>
