<svg width="15" height="18" viewBox="0 0 15 18" fill="none" xmlns="http://www.w3.org/2000/svg">
<path fill-rule="evenodd" clip-rule="evenodd" d="M14.0438 5.43281L9.66875 1.05781C9.55144 0.940632 9.39237 0.87487 9.22656 0.875H1.72656C1.03621 0.875 0.476562 1.43464 0.476562 2.125V15.875C0.476562 16.5654 1.03621 17.125 1.72656 17.125H12.9766C13.6669 17.125 14.2266 16.5654 14.2266 15.875V5.875C14.2267 5.70919 14.1609 5.55012 14.0438 5.43281ZM9.85156 3.00859L12.093 5.25H9.85156V3.00859ZM12.9766 15.875H1.72656V2.125H8.60156V5.875C8.60156 6.22018 8.88138 6.5 9.22656 6.5H12.9766V15.875Z" fill="#0D171C"/>
</svg>
