<svg width="20" height="20" viewBox="0 0 20 20" fill="none" xmlns="http://www.w3.org/2000/svg">
<path d="M10 20C4.48667 20 0 15.5133 0 10C0 4.48667 4.48667 0 10 0C15.5133 0 20 4.48667 20 10C20 15.5133 15.5133 20 10 20ZM10 1.24889C5.17556 1.24889 1.24889 5.17556 1.24889 10C1.24889 14.8244 5.17556 18.7511 10 18.7511C14.8244 18.7511 18.7511 14.8267 18.7511 10C18.7511 5.17333 14.8244 1.24889 10 1.24889Z" fill="#16D5A8"/>
<path d="M12.56 13.8467L13.0689 14.0822C12.1756 14.7645 11.3178 15.3 10.4956 15.6845C9.67337 16.0689 8.99559 16.2622 8.46226 16.2622C8.16448 16.2622 7.94671 16.2067 7.80671 16.0911C7.66893 15.9778 7.59782 15.7978 7.59782 15.5533C7.59782 14.9467 7.85337 13.9978 8.36004 12.7045C8.86893 11.4133 9.12226 10.4978 9.12226 9.96001C9.12226 9.86001 9.09337 9.78445 9.03782 9.73334C8.98226 9.68001 8.90226 9.65556 8.80004 9.65556C8.63559 9.65556 8.43559 9.70445 8.20004 9.80445C7.96448 9.90445 7.67115 10.0622 7.32226 10.2778L6.84448 10.0156C7.80004 9.37334 8.67782 8.87112 9.47782 8.5089C10.2778 8.14668 10.9045 7.96667 11.3578 7.96667C11.6556 7.96667 11.8756 8.02001 12.02 8.12445C12.1645 8.2289 12.2356 8.38667 12.2356 8.59779C12.2356 8.80223 12.0711 9.45779 11.7423 10.5667C11.6289 10.94 11.5423 11.2356 11.48 11.4511C11.2645 12.1756 11.0956 12.7756 10.9711 13.2533C10.8489 13.7311 10.7867 14.02 10.7867 14.12C10.7867 14.2422 10.82 14.3333 10.8867 14.3911C10.9534 14.4489 11.0578 14.4778 11.2023 14.4778C11.3467 14.4778 11.5311 14.4245 11.7556 14.32C11.9845 14.2133 12.2511 14.0556 12.56 13.8467Z" fill="#16D5A8"/>
<path d="M11.3779 7.31779C12.3597 7.31779 13.1557 6.52186 13.1557 5.54002C13.1557 4.55818 12.3597 3.76224 11.3779 3.76224C10.396 3.76224 9.6001 4.55818 9.6001 5.54002C9.6001 6.52186 10.396 7.31779 11.3779 7.31779Z" fill="#16D5A8"/>
</svg>
