<svg width="32" height="42" viewBox="0 0 32 42" fill="none" xmlns="http://www.w3.org/2000/svg">
<path d="M16.176 0.335205C17.0267 0.491227 17.8878 0.600742 18.7249 0.812272C21.7268 1.57288 24.2382 3.1436 26.2425 5.50793C28.0682 7.66223 29.1724 10.1496 29.5429 12.9445C29.87 15.4138 29.5609 17.8202 28.6353 20.138C27.6181 22.6838 26.0114 24.7826 23.7776 26.3729C21.8618 27.738 19.757 28.7072 17.4122 29.0432C12.247 29.7828 7.83488 28.2526 4.31539 24.4121C1.83104 21.7042 0.653375 18.4232 0.693881 14.7417C0.740387 10.4661 2.37262 6.87012 5.51556 3.99122C7.63985 2.04845 10.1767 0.914286 13.0286 0.497228C13.4352 0.437219 13.8447 0.389213 14.2513 0.335205C14.8934 0.335205 15.5355 0.335205 16.176 0.335205ZM15.2474 26.9939C21.4913 26.9774 26.9491 22.1033 27.3076 15.5623C27.6872 8.65687 22.3839 3.11059 15.8745 2.75504C8.91353 2.37549 3.07171 7.94277 3.06871 14.8947C3.06721 21.1911 8.20693 27.0059 15.2474 26.9939Z" fill="#090A0A"/>
<path d="M19.8892 30.1234C21.976 28.9172 24.0177 27.7366 26.088 26.5409C27.6948 29.3223 29.2895 32.0812 30.9007 34.8701C28.8304 36.0672 26.7871 37.2479 24.7033 38.4526C23.1026 35.6847 21.5109 32.9288 19.8892 30.1234Z" fill="#090A0A"/>
<path d="M25.293 39.5792C27.3738 38.3896 29.4335 37.2134 31.4918 36.0372C32.518 37.5929 31.9359 39.8148 30.2407 40.8979C28.6384 41.9196 26.3971 41.3405 25.293 39.5792Z" fill="#090A0A"/>
<path d="M12.4763 18.2072C12.9714 16.2404 13.4875 14.1716 14.0185 12.1059C14.0455 12.0023 14.1986 11.8613 14.2961 11.8583C14.9622 11.8358 15.6283 11.8463 16.3304 11.8463C16.8434 14.0321 17.352 16.1939 17.8711 18.3992C18.3211 16.1834 18.7592 14.0216 19.1988 11.8598C20.1544 11.8598 21.047 11.8598 21.9772 11.8598C21.9592 11.9768 21.9547 12.0789 21.9261 12.1719C21.065 14.9638 20.1949 17.7526 19.3443 20.5475C19.2558 20.8356 19.1253 20.9196 18.8402 20.9121C18.1996 20.8926 17.556 20.8896 16.9154 20.9136C16.6169 20.9241 16.4939 20.8161 16.4264 20.5355C16.0213 18.8508 15.6013 17.1691 15.1857 15.4858C15.1602 15.3853 15.1332 15.2848 15.1692 15.2128C14.6921 16.9875 14.2091 18.7608 13.744 20.54C13.669 20.8266 13.543 20.9226 13.2489 20.9136C12.5813 20.8926 11.9122 20.9181 11.2447 20.8971C11.1216 20.8926 10.9221 20.7861 10.8936 20.6886C10.052 17.7676 9.22537 14.8422 8.38525 11.8793C9.35739 11.8793 10.2965 11.8793 11.2762 11.8793C11.6827 14.0201 12.0923 16.1789 12.4763 18.2072Z" fill="#090A0A"/>
</svg>
