<svg width="28" height="36" viewBox="0 0 28 36" fill="none" xmlns="http://www.w3.org/2000/svg">
<path d="M21.9507 36.0001C16.577 36.0001 11.2034 36.0001 5.82967 36.0001C5.77133 35.9933 5.71299 35.9815 5.65429 35.9801C5.26703 35.9708 4.8787 35.9822 4.49322 35.9518C3.94884 35.9088 3.38441 35.9114 2.86866 35.7589C1.99894 35.5015 1.33143 34.9167 0.814607 34.1723C0.318184 33.4579 0.016106 32.683 0.0264855 31.7911C0.0386545 30.7424 0 29.6937 0 28.645C0.000715824 21.1665 0.00501077 13.6879 0.0118111 6.20968C0.012169 5.66208 -0.00858989 5.10696 0.0683611 4.56794C0.241948 3.35211 0.906948 2.42011 1.89407 1.71753C2.4857 1.29591 3.13745 1.02748 3.88406 1.02175C5.01578 1.01352 6.14713 0.97558 7.27849 0.971643C10.1976 0.96198 13.1168 0.963769 16.0359 0.961622C17.1318 0.960906 18.2277 0.961622 19.3219 0.961622C19.3698 1.00457 19.4153 1.04323 19.4582 1.08439C22.0713 3.61017 24.6891 6.13094 27.2933 8.66567C27.9318 9.28737 27.8437 9.04685 27.8863 10.063C27.8974 10.33 27.9089 10.597 27.92 10.8643C27.92 14.6306 27.92 18.3966 27.92 22.1629C27.9135 22.2749 27.9014 22.3873 27.901 22.4993C27.896 24.0476 27.8999 25.596 27.8863 27.1443C27.8702 28.9246 27.8405 30.7048 27.8108 32.4847C27.8083 32.6368 27.7808 32.7954 27.7299 32.9385C27.5091 33.562 27.187 34.1311 26.7317 34.6132C25.9812 35.4074 25.0925 35.9249 23.9647 35.9411C23.435 35.9486 22.9053 35.9632 22.3759 35.9768C22.2342 35.9808 22.0925 35.9922 21.9507 36.0001ZM25.8434 10.6077C25.7428 10.6077 25.6719 10.6081 25.6007 10.6077C24.3856 10.5973 23.1701 10.6098 21.9561 10.5705C20.2492 10.5154 19.0985 9.58658 18.3215 8.13417C18.0026 7.53825 17.9299 6.87504 17.916 6.21076C17.8945 5.20431 17.8934 4.19714 17.8838 3.19034C17.8831 3.12126 17.8838 3.05218 17.8838 2.967C17.7947 2.967 17.7306 2.967 17.6662 2.967C14.247 2.97237 10.8283 2.9738 7.40913 2.9849C6.31321 2.98848 5.21764 3.01747 4.12207 3.03429C3.74483 3.04002 3.38048 3.10301 3.08592 3.35462C2.86079 3.54682 2.63459 3.74761 2.45527 3.98025C2.19221 4.3217 2.0494 4.70144 2.05012 5.16315C2.06229 14.0408 2.06121 22.9184 2.05155 31.7961C2.05119 32.1733 2.13638 32.4987 2.33287 32.804C2.72228 33.4095 3.22049 33.8637 3.98069 33.9203C4.2953 33.9436 4.61134 33.955 4.92701 33.9561C7.01185 33.9643 9.09633 33.974 11.1812 33.9725C15.3566 33.9704 19.5323 33.9571 23.7077 33.9625C24.0774 33.9629 24.3938 33.8784 24.6952 33.6816C25.2936 33.2911 25.7453 32.8211 25.7521 32.0373C25.7607 31.043 25.8287 30.0488 25.8305 29.0545C25.8412 22.9653 25.8409 16.8758 25.8441 10.7867C25.8434 10.7351 25.8434 10.6829 25.8434 10.6077Z" fill="#090A0A"/>
<path d="M13.8163 17.4856C16.2823 17.4856 18.748 17.4799 21.214 17.4899C21.7784 17.4921 22.3432 17.5436 22.9073 17.5819C23.1084 17.5955 23.3325 17.612 23.4402 17.8146C23.5902 18.0977 23.7416 18.3919 23.6206 18.7312C23.5748 18.8597 23.5365 18.9989 23.4567 19.1052C23.384 19.2022 23.2695 19.3045 23.1575 19.3282C22.8679 19.3887 22.5698 19.4316 22.2741 19.438C20.976 19.466 19.6778 19.491 18.3797 19.4946C14.5676 19.505 10.7558 19.5053 6.9437 19.5071C6.44942 19.5075 5.95479 19.5025 5.46087 19.4831C5.01956 19.466 4.68957 19.2394 4.48806 18.8557C4.21176 18.3289 4.68062 17.5254 5.27583 17.5128C6.5142 17.4874 7.75329 17.4745 8.99203 17.4692C10.6001 17.462 12.2086 17.4674 13.8167 17.4674C13.8163 17.4735 13.8163 17.4796 13.8163 17.4856Z" fill="#090A0A"/>
<path d="M23.0977 27.6368C17.0325 27.6368 11.0418 27.6368 5.05319 27.6368C4.67738 27.3841 4.40645 27.0774 4.42362 26.587C4.43723 26.2026 4.76114 25.7069 5.30158 25.7001C6.63516 25.6829 7.96838 25.6396 9.30196 25.6375C13.1252 25.6314 16.9484 25.6375 20.7716 25.6457C21.4323 25.6471 22.0927 25.679 22.753 25.7015C23.1435 25.7148 23.4194 25.9124 23.5683 26.2674C23.7194 26.6271 23.6603 26.9678 23.4144 27.2713C23.306 27.4056 23.1886 27.5326 23.0977 27.6368Z" fill="#090A0A"/>
<path d="M5.05154 23.5455C4.97173 23.4807 4.8869 23.4152 4.80601 23.3458C4.37401 22.9735 4.30136 22.4145 4.63565 21.9524C4.84001 21.67 5.15032 21.6006 5.47423 21.5938C6.36758 21.5748 7.26093 21.5526 8.15392 21.553C11.883 21.5548 15.6117 21.5605 19.3408 21.573C20.4546 21.5766 21.5681 21.6153 22.6816 21.6213C23.2624 21.6246 23.4808 21.8637 23.6461 22.4345C23.7839 22.9102 23.3412 23.4603 22.8226 23.4818C22.2456 23.5057 21.6676 23.5233 21.0903 23.5244C15.7885 23.5337 10.4871 23.539 5.1854 23.5455C5.14388 23.5458 5.10236 23.5455 5.05154 23.5455Z" fill="#090A0A"/>
<path d="M4.37354 15.5709C4.39966 15.1339 4.42006 14.7012 4.45299 14.2699C4.47303 14.009 4.49845 13.7473 4.54533 13.4903C4.63052 13.0261 4.87211 12.656 5.2991 12.4424C5.92616 12.1285 6.56396 11.8354 7.19746 11.534C7.22323 11.5218 7.2515 11.5147 7.32452 11.4893C7.64377 12.4692 7.96053 13.4413 8.27728 14.4138C8.30126 14.4112 8.32524 14.4087 8.34922 14.4062C8.46876 13.9635 8.79017 13.5505 8.49811 13.0476C8.43047 12.9309 8.37248 12.7978 8.35423 12.6664C8.33956 12.5608 8.35853 12.4191 8.42152 12.34C8.63376 12.0723 9.16705 12.0777 9.4022 12.3271C9.51172 12.4431 9.54894 12.5705 9.48237 12.7187C9.37499 12.9571 9.2644 13.1936 9.14522 13.4524C9.25653 13.7455 9.37428 14.0544 9.49167 14.3636C9.51315 14.3647 9.53462 14.3658 9.5561 14.3669C9.87822 13.4166 10.2 12.4667 10.5296 11.4939C10.8532 11.6442 11.1488 11.7774 11.4405 11.9184C11.7991 12.0916 12.1531 12.2742 12.5114 12.4485C13.0139 12.6929 13.2744 13.1145 13.321 13.6489C13.3761 14.2828 13.3818 14.9206 13.4097 15.572C10.3933 15.5709 7.39073 15.5709 4.37354 15.5709Z" fill="#090A0A"/>
<path d="M11.1606 7.50031C11.1988 7.82887 11.2507 8.15672 11.2719 8.48671C11.298 8.8976 11.1638 9.26589 10.9365 9.60913C10.7905 9.82924 10.6427 10.0572 10.551 10.3024C10.1362 11.4137 8.79118 11.8557 7.85273 11.1732C7.53705 10.9438 7.31372 10.636 7.15695 10.2831C6.97585 9.87613 6.79797 9.46703 6.63762 9.0515C6.56568 8.86538 6.52452 8.66316 6.50126 8.46416C6.49159 8.38006 6.53884 8.25407 6.60362 8.20396C6.72996 8.10661 6.73426 7.9996 6.7271 7.86037C6.71421 7.60697 6.69882 7.34963 6.72781 7.09909C6.85058 6.03036 8.36991 4.80165 9.73034 5.35033C9.85095 5.39901 9.97443 5.45198 10.0775 5.52893C10.3624 5.74225 10.6434 5.96129 10.9132 6.19321C11.1151 6.3668 11.1702 6.61841 11.1878 6.87074C11.2021 7.07797 11.1906 7.28699 11.1906 7.4953C11.1806 7.49709 11.1706 7.49888 11.1606 7.50031Z" fill="#090A0A"/>
<path d="M4.87968 31.7188C4.62198 31.4461 4.39685 31.2038 4.3514 30.8469C4.28733 30.3426 4.60731 29.8648 5.10981 29.8136C5.6474 29.7589 6.19107 29.7449 6.73187 29.7438C9.15529 29.7388 11.5791 29.7424 14.0025 29.7485C14.3711 29.7496 14.7405 29.7707 15.1081 29.7979C15.5 29.8269 15.7563 30.0506 15.8855 30.4121C16.0179 30.7825 15.9284 31.1171 15.6693 31.4045C15.5623 31.5237 15.4381 31.6275 15.3418 31.7191C11.8353 31.7188 8.35249 31.7188 4.87968 31.7188Z" fill="#090A0A"/>
</svg>
