<svg width="22" height="25" viewBox="0 0 22 25" fill="none" xmlns="http://www.w3.org/2000/svg">
<path d="M21.9091 23.0942C21.9091 23.1558 21.9091 23.2184 21.9091 23.28C21.9047 23.3019 21.8992 23.3228 21.8959 23.3448C21.8332 23.8493 21.4628 24.2626 20.9682 24.3824C20.9144 24.3955 20.8605 24.4065 20.8067 24.4186C20.7198 24.4186 20.633 24.4186 20.5473 24.4186C20.5363 24.4142 20.5242 24.4087 20.5132 24.4076C20.2263 24.3681 19.9878 24.2384 19.7845 24.035C19.2525 23.4998 18.7173 22.9678 18.1842 22.4336C18.1677 22.4172 18.16 22.3908 18.1479 22.3699C18.1391 22.3765 18.1292 22.3842 18.1204 22.3908C18.1204 22.4128 18.1204 22.4347 18.1204 22.4567C18.1204 22.7579 18.1215 23.059 18.1204 23.3602C18.1182 23.857 17.8017 24.2681 17.3313 24.389C17.2862 24.401 17.2401 24.4109 17.1939 24.4219C11.9556 24.4219 6.71614 24.4219 1.47781 24.4219C1.46023 24.4175 1.44264 24.412 1.42506 24.4076C0.986516 24.3186 0.706244 24.0592 0.582045 23.6306C0.568856 23.5855 0.561162 23.5393 0.550171 23.4932C0.549072 17.0096 0.549072 10.5293 0.549072 4.04894C0.553469 4.03355 0.558964 4.01816 0.562262 4.00168C0.653487 3.47631 1.07774 3.1202 1.61191 3.1202C2.64287 3.1202 3.67382 3.1202 4.70478 3.1202C4.73336 3.1202 4.76084 3.1202 4.79601 3.1202C4.79601 3.03886 4.79601 2.96522 4.79601 2.89158C4.79601 2.26949 5.29061 1.77489 5.9116 1.77599C6.16329 1.77599 6.41499 1.77599 6.66668 1.77599C6.69086 1.77599 6.71395 1.77599 6.74362 1.77599C6.74362 1.62651 6.74142 1.48583 6.74362 1.34624C6.74692 1.10444 6.84474 0.9077 7.04917 0.778005C7.1371 0.721951 7.24481 0.697771 7.34373 0.659302C8.67145 0.658203 9.99917 0.658203 11.328 0.658203C11.3456 0.663699 11.3621 0.670293 11.3796 0.673591C11.6577 0.732942 11.8687 0.946168 11.9105 1.22644C11.9292 1.34954 11.9193 1.47704 11.9215 1.60233C11.9226 1.65729 11.9215 1.71224 11.9215 1.77379C11.9545 1.77379 11.9787 1.77379 12.0028 1.77379C12.2589 1.77379 12.5139 1.7705 12.77 1.77489C13.1063 1.78039 13.3866 1.91008 13.6064 2.16507C13.7878 2.375 13.8713 2.6223 13.8735 2.89928C13.8735 2.97072 13.8735 3.04216 13.8735 3.1191C13.9109 3.1191 13.9395 3.1191 13.968 3.1191C14.9935 3.1191 16.0179 3.1191 17.0433 3.1191C17.6643 3.1191 18.1171 3.57193 18.1171 4.19292C18.1171 7.51771 18.1171 10.8425 18.116 14.1673C18.116 14.2178 18.1303 14.2552 18.1655 14.2926C18.9118 15.0949 19.3218 16.0424 19.3844 17.1371C19.4328 17.9823 19.2547 18.7802 18.8535 19.5276C18.8261 19.5793 18.8305 19.6068 18.8711 19.6463C19.7603 20.5333 20.6484 21.4214 21.5365 22.3094C21.6881 22.4611 21.798 22.6392 21.8552 22.8458C21.8794 22.9282 21.8915 23.0118 21.9091 23.0942ZM4.79601 3.86099C4.76194 3.86099 4.73556 3.86099 4.70918 3.86099C3.68372 3.86099 2.65935 3.86099 1.63389 3.86099C1.40967 3.86099 1.28987 3.98079 1.28987 4.20501C1.28987 10.5798 1.28987 16.9546 1.28987 23.3305C1.28987 23.5558 1.40857 23.6756 1.63169 23.6756C6.7689 23.6756 11.9072 23.6756 17.0444 23.6756C17.25 23.6756 17.3775 23.5514 17.3775 23.3448C17.3785 22.7898 17.3786 22.2347 17.3764 21.6808C17.3764 21.6522 17.3621 21.6159 17.3423 21.595C17.2708 21.5181 17.1928 21.4467 17.1214 21.3697C17.0917 21.3378 17.0697 21.3378 17.0323 21.3587C16.1091 21.8544 15.1254 22.0259 14.0977 21.8357C12.5623 21.5522 11.4599 20.6828 10.7729 19.2836C10.7455 19.2287 10.718 19.2111 10.6575 19.2111C9.30234 19.2133 7.94714 19.2122 6.59195 19.2122C6.55128 19.2122 6.50951 19.2133 6.46885 19.2089C6.26771 19.1858 6.12043 18.9957 6.14901 18.7956C6.17758 18.5978 6.32816 18.4714 6.53699 18.4714C7.82184 18.4714 9.1067 18.4714 10.3915 18.4714C10.4201 18.4714 10.4476 18.4714 10.485 18.4714C10.3036 17.7009 10.3146 16.9403 10.5179 16.1764C10.4795 16.1764 10.4531 16.1764 10.4267 16.1764C9.14187 16.1764 7.85701 16.1764 6.57216 16.1764C6.54578 16.1764 6.51831 16.1775 6.49193 16.1764C6.282 16.1666 6.11823 15.9665 6.14901 15.7588C6.17978 15.5566 6.33036 15.4357 6.55128 15.4357C7.94384 15.4357 9.33531 15.4357 10.7279 15.4368C10.7773 15.4368 10.8048 15.4247 10.8279 15.3774C11.0598 14.9092 11.3676 14.4959 11.7423 14.1321C13.2415 12.6802 15.5727 12.4549 17.328 13.5925C17.3412 13.6012 17.3555 13.6067 17.3785 13.6188C17.3785 13.5881 17.3785 13.5661 17.3785 13.5441C17.3785 13.1484 17.3785 12.7516 17.3785 12.356C17.3785 9.64228 17.3785 6.92749 17.3785 4.2138C17.3785 3.98079 17.2598 3.86209 17.029 3.86209C16.008 3.86209 14.9869 3.86209 13.9658 3.86209C13.9373 3.86209 13.9098 3.86209 13.8746 3.86209C13.8746 3.89177 13.8746 3.91375 13.8746 3.93573C13.8746 4.25997 13.8757 4.5831 13.8735 4.90734C13.8735 4.9546 13.8691 5.00296 13.8581 5.04802C13.8131 5.22168 13.6647 5.3206 13.4569 5.3206C10.7103 5.3206 7.96253 5.3206 5.21587 5.3206C5.20158 5.3206 5.18729 5.3206 5.173 5.3206C4.94769 5.31291 4.79601 5.15574 4.79601 4.93152C4.79601 4.78314 4.79601 4.63476 4.79601 4.48638C4.79601 4.28085 4.79601 4.07642 4.79601 3.86099ZM14.8748 21.1642C16.9433 21.1653 18.6502 19.4727 18.6524 17.4184C18.6546 15.3093 16.9752 13.6166 14.8748 13.61C12.7997 13.6045 11.1016 15.3016 11.0961 17.3866C11.0917 19.4628 12.7931 21.1642 14.8748 21.1642ZM11.9226 2.52888C11.9226 2.68715 11.9226 2.84542 11.9226 3.00479C11.9226 3.2389 11.772 3.39607 11.5379 3.39607C10.0673 3.39717 8.59671 3.39717 7.12611 3.39607C6.8975 3.39607 6.74362 3.2389 6.74252 3.00919C6.74142 2.8685 6.74252 2.72891 6.74252 2.58823C6.74252 2.56625 6.73923 2.54536 6.73813 2.52118C6.71504 2.52008 6.69856 2.51789 6.68317 2.51789C6.42928 2.51789 6.17538 2.51679 5.92259 2.51789C5.69398 2.51899 5.539 2.67616 5.5379 2.90477C5.5379 3.43894 5.5379 3.9731 5.5379 4.50726C5.5379 4.52925 5.5401 4.55123 5.5412 4.57321C8.07464 4.57321 10.6015 4.57321 13.1283 4.57321C13.1305 4.56222 13.1327 4.55562 13.1327 4.55013C13.1327 3.99508 13.136 3.44113 13.1316 2.88609C13.1305 2.68605 12.9909 2.53108 12.7964 2.52338C12.5128 2.51239 12.2271 2.52008 11.9435 2.52008C11.9391 2.52008 11.9358 2.52338 11.9226 2.52888ZM7.48771 2.64978C8.72201 2.64978 9.94861 2.64978 11.1774 2.64978C11.1774 2.23212 11.1774 1.81886 11.1774 1.40449C9.94531 1.40449 8.71761 1.40449 7.48771 1.40449C7.48771 1.82105 7.48771 2.23212 7.48771 2.64978ZM17.7017 20.9235C17.7215 20.9356 17.7446 20.9444 17.7599 20.9597C18.1468 21.3455 18.5326 21.7313 18.9195 22.1182C19.3877 22.5864 19.8548 23.0546 20.323 23.5218C20.5484 23.7471 20.9012 23.7207 21.077 23.4657C21.2199 23.2591 21.1869 23.0085 20.9891 22.8106C20.1406 21.9621 19.2921 21.1136 18.4436 20.2662C18.4293 20.2519 18.4139 20.2387 18.3996 20.2255C18.2886 20.3464 18.1831 20.4674 18.0699 20.5806C17.9567 20.6949 17.8358 20.7993 17.7017 20.9235Z" fill="#090A0A"/>
<path d="M5.57527 10.0039C5.57637 7.91556 7.27668 6.22514 9.37158 6.24492C11.4137 6.26361 13.0997 7.92435 13.092 10.017C13.0854 12.102 11.3818 13.7848 9.28695 13.7595C7.24591 13.7364 5.57857 12.079 5.57527 10.0039ZM11.8841 11.602C12.6403 10.4336 12.5117 8.70032 11.2313 7.66167C9.94201 6.61642 8.08562 6.79777 7.01949 8.07053C6.01931 9.26526 6.22264 10.793 6.78758 11.5954C7.11072 11.0975 7.54596 10.7304 8.08892 10.4908C7.35032 9.76096 7.43166 8.59701 8.1186 7.95293C8.77256 7.34073 9.77824 7.30446 10.4542 7.8716C10.7949 8.15736 11.0092 8.51897 11.0741 8.95861C11.162 9.54553 10.9851 10.0533 10.574 10.4886C11.1235 10.7326 11.5566 11.1008 11.8841 11.602ZM9.33201 10.9974C9.29904 10.9974 9.26606 10.9963 9.23309 10.9974C8.37909 11.0271 7.74161 11.4129 7.32065 12.1581C7.29427 12.2054 7.30086 12.2306 7.34153 12.2647C7.89108 12.7395 8.52746 12.9967 9.25287 13.0154C10.0486 13.0352 10.7455 12.7725 11.3434 12.2493C11.3741 12.2218 11.3697 12.201 11.3533 12.1702C11.2038 11.8822 11.0004 11.6382 10.7411 11.4426C10.3256 11.1271 9.85408 10.9821 9.33201 10.9974ZM9.33531 8.21232C8.77696 8.20902 8.31864 8.66625 8.31094 9.23009C8.30435 9.78404 8.76487 10.2501 9.32102 10.2534C9.89365 10.2567 10.3487 9.80932 10.3564 9.23668C10.3641 8.68054 9.90025 8.21452 9.33531 8.21232Z" fill="#090A0A"/>
<path d="M8.71102 21.5071C9.43313 21.5071 10.1541 21.5071 10.8763 21.5071C11.1093 21.5071 11.2763 21.673 11.2675 21.8918C11.2598 22.0874 11.106 22.2402 10.9092 22.2479C10.8719 22.249 10.8345 22.2479 10.7982 22.2479C9.37928 22.2479 7.96143 22.2479 6.54249 22.2479C6.32926 22.2479 6.17869 22.1215 6.15011 21.9203C6.12263 21.7236 6.26991 21.5335 6.46665 21.5104C6.50182 21.506 6.53699 21.506 6.57216 21.506C7.28438 21.5071 7.9977 21.5071 8.71102 21.5071Z" fill="#090A0A"/>
<path d="M3.70679 18.6439C3.72328 18.6186 3.73207 18.5955 3.74856 18.5802C4.05851 18.2691 4.36845 17.9581 4.6806 17.6481C4.87734 17.4525 5.19498 17.5129 5.2939 17.7635C5.35105 17.9086 5.32797 18.0471 5.21696 18.1592C4.7971 18.5824 4.37615 19.0044 3.95299 19.4243C3.81011 19.5661 3.58259 19.5628 3.43861 19.4221C3.25506 19.2418 3.07261 19.0594 2.89126 18.8758C2.74727 18.7296 2.74947 18.4933 2.89346 18.3515C3.03634 18.2109 3.26605 18.2087 3.41333 18.3493C3.50785 18.4395 3.59908 18.5351 3.70679 18.6439Z" fill="#090A0A"/>
<path d="M3.69578 15.6005C3.88703 15.4082 4.06838 15.2257 4.25083 15.0433C4.39261 14.9015 4.5333 14.7597 4.67508 14.619C4.83336 14.4608 5.06087 14.4553 5.21145 14.6036C5.36202 14.7531 5.35873 14.9828 5.20265 15.14C4.79159 15.5522 4.38052 15.9632 3.96946 16.3732C3.81339 16.5282 3.58917 16.5315 3.432 16.3776C3.24955 16.1984 3.0682 16.0182 2.88904 15.8357C2.74836 15.6918 2.75165 15.4577 2.89344 15.3159C3.03302 15.1763 3.26384 15.1708 3.40782 15.3082C3.50454 15.4005 3.59576 15.4983 3.69578 15.6005Z" fill="#090A0A"/>
<path d="M3.7057 21.6785C3.72439 21.6511 3.73538 21.628 3.75296 21.6104C4.06181 21.3005 4.36956 20.9905 4.68061 20.6828C4.85536 20.5102 5.13014 20.5355 5.25983 20.7333C5.35875 20.8828 5.33787 21.074 5.20378 21.2081C4.99605 21.4181 4.78722 21.6258 4.57839 21.8335C4.37835 22.0336 4.17941 22.2336 3.97938 22.4325C3.80682 22.604 3.587 22.604 3.41664 22.4336C3.24628 22.2633 3.07591 22.0929 2.90445 21.9215C2.75168 21.7676 2.74508 21.5368 2.89017 21.3895C3.03855 21.2378 3.26936 21.24 3.42653 21.395C3.51556 21.484 3.60348 21.5741 3.7057 21.6785Z" fill="#090A0A"/>
<path d="M11.6896 17.3843C11.6962 15.5818 13.1745 14.1837 14.91 14.2035C16.6488 14.2233 18.0853 15.6554 18.0589 17.436C18.0336 19.1682 16.6125 20.5739 14.8682 20.5706C13.1151 20.5673 11.6885 19.1374 11.6896 17.3843ZM12.4315 17.3832C12.4238 18.7098 13.5196 19.8199 14.8462 19.8287C16.197 19.8375 17.3082 18.7538 17.317 17.4228C17.3258 16.0599 16.2443 14.9553 14.8913 14.9465C13.5416 14.9377 12.4392 16.0291 12.4315 17.3832Z" fill="#090A0A"/>
</svg>
