<svg width="36" height="42" viewBox="0 0 36 42" fill="none" xmlns="http://www.w3.org/2000/svg">
<path d="M24.5308 21.2157C24.4905 17.9631 22.1907 15.2553 18.9788 14.7499C18.3213 14.6471 17.7286 14.4908 17.3964 13.8371C16.8873 12.8353 17.5213 11.6397 18.6653 11.5368C19.5203 11.4597 20.1012 11.0552 20.4766 10.3026C20.5788 10.0969 20.6879 9.89321 20.8098 9.69839C21.1037 9.22567 21.5568 9.05755 22.0767 9.2494C22.5219 9.41357 22.9612 9.59652 23.3927 9.79333C23.8861 10.0178 24.0846 10.4213 23.9971 10.9593C23.9893 11.0078 23.9814 11.0582 23.9647 11.1037C23.1804 13.1815 24.0138 13.6928 25.6188 15.0951C26.0689 15.4887 26.6813 15.4541 27.2631 15.2869C28.8592 14.8271 28.9713 14.8864 29.6022 16.4272C29.671 16.5943 29.7447 16.7605 29.8076 16.9296C30.0219 17.5062 29.8931 18.0046 29.3349 18.2657C27.2995 19.218 27.5383 20.0972 27.6611 22.2581C27.6975 22.9039 28.1811 23.3271 28.7403 23.6377C30.1428 24.4169 30.1752 24.5228 29.5737 26.0339C29.4951 26.2327 29.4106 26.4285 29.3192 26.6213C29.0912 27.1019 28.7236 27.3007 28.2066 27.2266C28.126 27.2147 28.0484 27.186 27.9697 27.1652C26.1495 26.6975 24.8846 27.2592 23.9942 28.9355C23.716 29.4586 23.716 29.9986 23.8782 30.5633C24.3185 32.0962 24.2487 32.2287 22.7735 32.8478C22.5769 32.9298 22.3814 33.0149 22.1809 33.0861C21.6727 33.2661 21.2344 33.1227 20.9445 32.6717C20.7852 32.4235 20.6417 32.1624 20.5012 31.9033C20.1002 31.1636 19.4722 30.8313 18.6476 30.8422C18.4353 30.8451 18.221 30.859 18.0097 30.8471C17.1114 30.7947 16.4323 30.0658 16.4598 29.1926C16.4873 28.3124 17.1969 27.6389 18.1021 27.632C21.1646 27.6113 23.6148 25.6462 24.3166 22.6279C24.4247 22.1651 24.462 21.6865 24.5308 21.2157Z" fill="#090A0A"/>
<path d="M16.0164 34.8504C15.4267 34.8504 14.837 34.8702 14.2483 34.8464C13.2173 34.8049 12.2414 34.0078 12.1185 32.9823C11.7736 30.1034 10.5765 27.5232 9.44031 24.9154C8.90368 23.6831 8.21275 22.4865 7.89136 21.1979C6.30016 14.8172 11.0669 8.52252 17.5939 8.27924C18.2888 8.25353 18.7477 8.59768 18.7821 9.17127C18.8175 9.76662 18.3782 10.1612 17.6519 10.183C12.0114 10.355 8.03093 16.2166 9.92288 21.5707C10.0428 21.91 10.2 22.2393 10.3632 22.5607C11.6851 25.1774 12.8478 27.8595 13.6105 30.7007C13.7549 31.2377 13.8375 31.7955 13.9063 32.3493C13.9613 32.7914 14.1569 32.9832 14.608 32.9763C15.6725 32.9615 16.7369 32.9674 17.8003 32.9832C18.332 32.9912 18.7094 33.3116 18.7703 33.7843C18.8303 34.2481 18.6288 34.6012 18.2111 34.7792C18.0116 34.8642 17.7649 34.8514 17.5379 34.8563C17.0307 34.8662 16.5226 34.8593 16.0155 34.8593C16.0164 34.8563 16.0164 34.8533 16.0164 34.8504Z" fill="#090A0A"/>
<path d="M22.2656 23.5893C22.2135 23.5804 22.1319 23.5705 22.0523 23.5537C21.0715 23.348 20.3196 24.1065 20.5624 25.0895C20.6842 25.58 20.41 25.7293 20.0503 25.8797C19.7024 26.025 19.4518 26.026 19.2316 25.6463C18.7245 24.7711 17.608 24.78 17.1028 25.6562C16.8925 26.0201 16.6487 26.0537 16.287 25.9004C15.9244 25.7471 15.6472 25.6077 15.7602 25.1192C15.9961 24.0996 15.2256 23.343 14.2113 23.61C13.7602 23.7287 13.6295 23.4775 13.4899 23.1561C13.3395 22.811 13.2727 22.5212 13.6786 22.272C14.5641 21.73 14.5504 20.6501 13.6511 20.1042C13.2373 19.853 13.3395 19.5613 13.4771 19.2181C13.6137 18.8769 13.7651 18.6633 14.2025 18.7731C15.2069 19.0262 15.9863 18.2321 15.7209 17.2273C15.605 16.7863 15.8251 16.633 16.1573 16.4935C16.4925 16.3531 16.7814 16.2384 17.0379 16.6567C17.5844 17.5497 18.6793 17.5527 19.1992 16.6646C19.4242 16.2789 19.6837 16.3046 20.0238 16.449C20.3589 16.5904 20.6469 16.7131 20.5329 17.1907C20.2852 18.2222 21.0272 18.9758 22.0484 18.7315C22.5329 18.6158 22.6794 18.8907 22.8298 19.2557C22.9752 19.6127 22.9644 19.8599 22.5899 20.0765C21.7398 20.568 21.7575 21.7142 22.6155 22.2245C22.8799 22.3817 22.9959 22.5598 22.9123 22.8663C22.7737 23.3667 22.5968 23.5833 22.2656 23.5893ZM18.1436 23.7861C19.5815 23.787 20.7452 22.631 20.755 21.191C20.7648 19.7363 19.5795 18.5308 18.1436 18.5347C16.7146 18.5387 15.547 19.7056 15.5371 21.1416C15.5273 22.6171 16.6792 23.7851 18.1436 23.7861Z" fill="#090A0A"/>
<path d="M17.9968 38.3216C16.5068 38.3216 15.0158 38.3246 13.5259 38.3206C12.8113 38.3187 12.3985 37.9607 12.4084 37.3693C12.4182 36.8036 12.8339 36.4436 13.5111 36.4426C16.5245 36.4377 19.5378 36.4377 22.5512 36.4416C23.1753 36.4426 23.596 36.8313 23.5979 37.3772C23.5999 37.9379 23.1999 38.3177 22.565 38.3216C21.0416 38.3295 19.5192 38.3246 17.9958 38.3246C17.9968 38.3226 17.9968 38.3216 17.9968 38.3216Z" fill="#090A0A"/>
<path d="M18.0067 41.5703C17.302 41.5703 16.5983 41.5753 15.8936 41.5693C15.2479 41.5634 14.8577 41.2123 14.8469 40.6457C14.8361 40.0642 15.242 39.6903 15.9093 39.6874C17.301 39.6814 18.6937 39.6824 20.0854 39.6864C20.7586 39.6884 21.1586 40.0493 21.1596 40.6348C21.1596 41.2094 20.7517 41.5624 20.0697 41.5674C19.3817 41.5723 18.6937 41.5684 18.0057 41.5684C18.0067 41.5693 18.0067 41.5693 18.0067 41.5703Z" fill="#090A0A"/>
<path d="M5.76642 4.69434C6.04849 4.86641 6.28339 4.95839 6.45047 5.12156C7.3537 6.00569 8.24414 6.90266 9.12968 7.8036C9.52084 8.20116 9.53853 8.63432 9.2083 8.98737C8.89576 9.32164 8.4181 9.31076 8.0348 8.93001C7.12666 8.02809 6.22835 7.11529 5.32906 6.20446C5.06664 5.93844 4.91136 5.61109 5.12758 5.27287C5.27206 5.04739 5.53349 4.89905 5.76642 4.69434Z" fill="#090A0A"/>
<path d="M30.1941 4.70221C30.4349 4.88121 30.7435 4.99692 30.8359 5.20756C30.9361 5.43601 30.9194 5.80093 30.7995 6.02147C30.6324 6.32805 30.3248 6.55847 30.0722 6.81461C29.3803 7.51578 28.6904 8.21892 27.9886 8.90921C27.5886 9.30182 27.1493 9.32457 26.8131 9.00118C26.4603 8.66296 26.4819 8.20903 26.8987 7.78477C27.7724 6.89471 28.6501 6.00763 29.5395 5.13339C29.7056 4.97022 29.9346 4.87033 30.1941 4.70221Z" fill="#090A0A"/>
<path d="M17.2203 3.19507C17.2203 2.57005 17.2135 1.94405 17.2223 1.31903C17.2292 0.779062 17.5378 0.432929 17.9978 0.426007C18.4617 0.419084 18.7811 0.760272 18.784 1.3042C18.7919 2.58785 18.7909 3.87151 18.7821 5.15418C18.7791 5.66349 18.4656 6.01457 18.0371 6.02841C17.5781 6.04226 17.2331 5.69118 17.2243 5.16902C17.2125 4.51235 17.2203 3.85371 17.2203 3.19507Z" fill="#090A0A"/>
<path d="M33.1996 18.6287C32.5785 18.6287 31.9583 18.6346 31.3372 18.6267C30.7878 18.6198 30.4585 18.3231 30.4566 17.8513C30.4546 17.3836 30.7897 17.0612 31.3254 17.0582C32.5834 17.0493 33.8414 17.0483 35.0995 17.0582C35.6862 17.0631 36.0115 17.3697 36.0017 17.8652C35.9919 18.3537 35.6616 18.6247 35.0621 18.6287C34.441 18.6316 33.8208 18.6287 33.1996 18.6287Z" fill="#090A0A"/>
<path d="M2.76502 18.6286C2.12716 18.6286 1.49028 18.6375 0.852423 18.6257C0.31678 18.6168 -0.0114865 18.2944 0.000307476 17.8217C0.0111186 17.3727 0.336436 17.0621 0.848492 17.0582C2.12323 17.0483 3.39796 17.0463 4.67269 17.0572C5.22799 17.0621 5.54545 17.3658 5.5484 17.8424C5.55135 18.3132 5.22112 18.6188 4.67663 18.6257C4.03975 18.6356 3.40287 18.6286 2.76502 18.6286Z" fill="#090A0A"/>
</svg>
