<svg width="61" height="61" viewBox="0 0 61 61" fill="none" xmlns="http://www.w3.org/2000/svg">
<path d="M22.6953 52.9936C22.4524 52.9937 22.2171 52.9093 22.0298 52.7548C21.8424 52.6004 21.7148 52.3855 21.6687 52.1472C18.6972 36.6686 16.5812 34.5543 1.08984 31.5816C0.851288 31.536 0.636119 31.4087 0.481363 31.2216C0.326607 31.0346 0.241943 30.7994 0.241943 30.5567C0.241943 30.314 0.326607 30.0789 0.481363 29.8919C0.636119 29.7048 0.851288 29.5775 1.08984 29.5319C16.5812 26.5608 18.6973 24.4482 21.6687 8.96786C21.7148 8.72961 21.8425 8.51483 22.0298 8.36038C22.2171 8.20593 22.4524 8.12146 22.6952 8.12146C22.9381 8.12146 23.1734 8.20593 23.3607 8.36038C23.548 8.51483 23.6757 8.72961 23.7218 8.96786C26.6942 24.4482 28.8101 26.5608 44.3015 29.5318C44.54 29.5774 44.7552 29.7048 44.91 29.8918C45.0647 30.0789 45.1494 30.314 45.1494 30.5567C45.1494 30.7994 45.0647 31.0345 44.91 31.2216C44.7552 31.4086 44.54 31.5359 44.3015 31.5816C28.8102 34.5542 26.6942 36.6686 23.7218 52.1472C23.6757 52.3855 23.5481 52.6003 23.3608 52.7548C23.1734 52.9092 22.9381 52.9937 22.6953 52.9936ZM6.35432 30.5567C16.992 33.0739 20.1787 36.2573 22.6953 46.8868C25.2127 36.2573 28.3994 33.0739 39.0371 30.5567C28.3994 28.0412 25.2127 24.8578 22.6953 14.2283C20.1787 24.8578 16.9921 28.0412 6.35432 30.5567Z" fill="white"/>
<path d="M59.394 8.14003C53.9357 7.09306 53.3386 6.49647 52.2909 1.04233C52.2448 0.804076 52.1171 0.58929 51.9298 0.434844C51.7425 0.280397 51.5072 0.195923 51.2643 0.195923C51.0215 0.195923 50.7862 0.280397 50.5989 0.434844C50.4116 0.58929 50.2839 0.804076 50.2378 1.04233C49.1909 6.49647 48.5939 7.09306 43.1355 8.14003C42.897 8.18567 42.6818 8.31297 42.527 8.50003C42.3723 8.68709 42.2876 8.9222 42.2876 9.16491C42.2876 9.40761 42.3723 9.64273 42.527 9.82979C42.6818 10.0168 42.897 10.1441 43.1355 10.1898C48.593 11.2368 49.1909 11.8333 50.2378 17.2875C50.2839 17.5257 50.4116 17.7405 50.5989 17.895C50.7862 18.0494 51.0215 18.1339 51.2643 18.1339C51.5072 18.1339 51.7425 18.0494 51.9298 17.895C52.1171 17.7405 52.2448 17.5257 52.2909 17.2875C53.3386 11.8333 53.9365 11.2368 59.394 10.1898C59.6326 10.1441 59.8478 10.0168 60.0025 9.82979C60.1573 9.64273 60.2419 9.40761 60.2419 9.16491C60.2419 8.9222 60.1573 8.68709 60.0025 8.50003C59.8478 8.31297 59.6326 8.18567 59.394 8.14003Z" fill="white"/>
<path d="M59.394 50.2022C53.9357 49.1552 53.3386 48.5586 52.2909 43.1045C52.2448 42.8662 52.1171 42.6514 51.9298 42.497C51.7425 42.3425 51.5072 42.2581 51.2643 42.2581C51.0215 42.2581 50.7862 42.3425 50.5989 42.497C50.4116 42.6514 50.2839 42.8662 50.2378 43.1045C49.1909 48.5586 48.5939 49.1552 43.1355 50.2022C42.897 50.2478 42.6818 50.3751 42.527 50.5622C42.3723 50.7492 42.2876 50.9843 42.2876 51.227C42.2876 51.4697 42.3723 51.7049 42.527 51.8919C42.6818 52.079 42.897 52.2063 43.1355 52.2519C48.593 53.2989 49.1909 53.8955 50.2378 59.3496C50.2839 59.5879 50.4116 59.8027 50.5989 59.9571C50.7862 60.1116 51.0215 60.196 51.2643 60.196C51.5072 60.196 51.7425 60.1116 51.9298 59.9571C52.1171 59.8027 52.2448 59.5879 52.2909 59.3496C53.3386 53.8955 53.9365 53.2989 59.394 52.2519C59.6326 52.2063 59.8478 52.079 60.0025 51.8919C60.1573 51.7049 60.2419 51.4697 60.2419 51.227C60.2419 50.9843 60.1573 50.7492 60.0025 50.5622C59.8478 50.3751 59.6326 50.2478 59.394 50.2022Z" fill="white"/>
</svg>
